<svg id="svg" version="1.1" xmlns="http://www.w3.org/2000/svg" xmlns:xlink="http://www.w3.org/1999/xlink" width="400" height="385.64593301435406" viewBox="0, 0, 400,385.64593301435406"><g id="svgg"><path id="path0" d="M199.669 0.268 C 199.499 0.439,197.335 0.688,194.859 0.821 C 190.095 1.078,184.684 1.675,181.485 2.296 C 180.424 2.502,177.907 2.946,175.892 3.281 C 171.383 4.033,168.627 4.508,165.863 5.013 C 164.696 5.225,162.179 5.659,160.270 5.976 C 149.099 7.832,120.362 16.669,105.111 22.937 C 95.792 26.768,77.579 35.402,75.410 37.018 C 75.198 37.176,73.288 38.225,71.167 39.349 C 62.393 43.997,44.016 55.678,42.044 57.860 C 41.938 57.978,40.365 59.225,38.548 60.631 C 33.061 64.880,26.071 71.813,21.673 77.369 C 21.183 77.989,20.152 79.624,19.383 81.003 C 18.614 82.382,16.542 85.521,14.778 87.978 C 13.015 90.435,11.572 92.549,11.572 92.675 C 11.572 92.801,10.944 94.262,10.177 95.922 C 6.420 104.047,5.978 108.377,8.361 113.717 C 10.446 118.392,15.348 120.310,25.265 120.332 C 47.393 120.379,66.184 110.568,87.261 87.963 C 89.324 85.751,91.122 84.051,91.257 84.185 C 91.504 84.432,90.302 86.328,88.996 87.752 C 85.861 91.170,85.152 94.589,87.367 95.609 C 89.915 96.783,91.013 98.224,94.897 105.497 C 95.803 107.194,97.016 109.450,97.592 110.511 C 98.168 111.572,100.739 116.542,103.306 121.556 L 107.972 130.671 105.770 130.874 C 104.559 130.986,103.200 131.194,102.751 131.337 C 101.873 131.616,102.283 132.152,95.924 122.418 C 90.898 114.725,91.285 116.577,97.240 128.713 C 99.341 132.996,101.061 136.826,101.061 137.225 C 101.061 141.765,105.293 149.696,109.067 152.226 C 110.063 152.894,111.184 154.161,111.918 155.448 C 112.584 156.615,114.726 160.087,116.679 163.163 C 118.632 166.239,120.805 169.797,121.508 171.070 C 122.212 172.343,123.078 173.905,123.433 174.542 C 123.788 175.178,124.656 176.741,125.362 178.014 C 126.068 179.286,127.075 181.099,127.600 182.041 C 128.125 182.983,128.877 184.100,129.272 184.524 C 130.417 185.753,130.240 183.987,129.026 182.064 C 128.496 181.223,128.062 180.467,128.062 180.383 C 128.062 180.299,127.020 178.365,125.747 176.085 C 124.474 173.805,123.433 171.887,123.433 171.823 C 123.433 171.758,122.825 170.390,122.083 168.783 C 121.340 167.175,120.733 165.784,120.733 165.691 C 120.733 165.438,117.786 159.094,116.274 156.093 C 115.544 154.644,114.952 153.168,114.957 152.814 C 114.971 151.962,117.262 149.340,117.499 149.906 C 117.599 150.146,118.242 151.275,118.928 152.413 C 119.613 153.552,121.197 156.914,122.447 159.884 C 130.656 179.396,141.370 198.906,147.073 204.725 C 150.163 207.878,151.532 207.677,158.553 203.037 C 167.735 196.968,178.575 186.387,184.511 177.700 C 186.620 174.613,186.649 174.345,185.201 171.176 C 184.592 169.845,183.701 167.888,183.220 166.827 C 182.740 165.767,181.953 164.031,181.471 162.970 C 178.800 157.085,172.265 140.928,171.252 137.705 C 171.086 137.175,170.225 134.744,169.341 132.305 C 163.584 116.428,155.963 90.812,153.103 77.724 C 152.747 76.092,152.258 74.219,150.639 68.274 C 150.090 66.258,149.475 63.828,149.271 62.874 C 147.816 56.047,146.874 51.399,146.340 48.409 C 145.106 41.496,144.775 41.592,128.560 53.595 C 126.395 55.198,122.576 57.950,120.074 59.710 C 117.572 61.471,113.877 64.198,111.861 65.770 C 109.846 67.343,107.976 68.636,107.706 68.645 C 106.525 68.681,117.644 58.564,125.714 52.260 C 128.809 49.843,132.903 46.539,134.812 44.917 C 145.958 35.453,163.460 24.543,177.628 18.229 C 179.113 17.567,181.283 16.602,182.449 16.085 C 183.616 15.567,186.741 14.323,189.392 13.319 C 192.044 12.315,194.995 11.187,195.950 10.811 C 197.953 10.023,210.285 7.268,221.022 5.209 C 229.547 3.574,230.194 2.631,223.460 1.652 C 216.533 0.646,200.236 -0.302,199.669 0.268 M186.119 24.678 C 185.991 24.886,185.727 27.423,185.533 30.317 C 185.176 35.631,185.290 37.350,186.499 44.937 C 186.837 47.059,187.267 49.836,187.455 51.109 C 187.643 52.382,188.065 55.246,188.394 57.473 C 189.145 62.558,189.152 62.388,188.235 61.331 C 187.752 60.773,187.464 59.888,187.464 58.957 C 187.464 58.141,187.290 57.473,187.078 57.473 C 186.589 57.473,186.579 60.423,187.059 62.579 C 187.261 63.484,187.607 65.352,187.828 66.731 C 188.050 68.110,188.832 72.970,189.566 77.531 C 190.301 82.093,191.077 87.213,191.291 88.910 C 192.044 94.872,192.831 100.546,193.833 107.232 C 194.390 110.945,195.001 115.024,195.191 116.297 C 195.381 117.570,195.889 120.347,196.318 122.469 C 197.194 126.791,197.286 128.062,196.721 128.062 C 196.509 128.062,196.336 127.662,196.336 127.175 C 196.336 126.687,196.136 126.088,195.892 125.843 C 195.647 125.599,195.319 124.653,195.161 123.741 C 195.003 122.829,194.575 121.041,194.210 119.769 C 193.844 118.496,193.416 116.847,193.259 116.104 C 193.102 115.362,192.446 112.758,191.801 110.318 C 191.157 107.878,190.166 103.799,189.598 101.254 C 189.030 98.708,188.156 94.889,187.656 92.768 C 187.155 90.646,186.461 87.261,186.114 85.246 C 185.767 83.230,185.329 80.800,185.141 79.846 C 184.952 78.891,184.351 75.246,183.804 71.745 C 183.257 68.245,182.551 63.732,182.235 61.716 C 180.989 53.758,179.472 43.567,178.964 39.730 C 178.236 34.237,176.927 29.499,176.045 29.160 C 175.644 29.007,175.548 29.180,175.686 29.808 C 175.879 30.679,176.711 37.182,178.414 51.109 C 179.230 57.788,179.826 61.679,181.691 72.517 C 181.892 73.684,182.322 75.853,182.646 77.338 C 182.971 78.824,183.333 80.559,183.452 81.196 C 183.570 81.832,183.893 83.394,184.170 84.667 C 184.446 85.940,184.865 87.936,185.099 89.103 C 185.334 90.270,185.807 92.613,186.152 94.311 C 186.757 97.291,187.824 101.575,189.468 107.618 C 189.900 109.209,190.393 111.032,190.561 111.668 C 190.730 112.305,191.163 113.867,191.522 115.140 C 191.881 116.413,192.330 118.018,192.520 118.708 C 192.709 119.397,193.019 120.526,193.208 121.215 C 194.120 124.536,194.896 127.271,195.423 129.026 C 195.741 130.087,196.097 131.432,196.212 132.015 C 196.543 133.681,197.107 133.256,197.107 131.340 C 197.107 129.336,197.705 129.006,197.981 130.858 C 198.083 131.548,198.391 132.719,198.664 133.462 C 198.937 134.204,199.566 135.984,200.062 137.416 C 204.532 150.315,205.973 152.729,208.368 151.326 C 210.510 150.072,210.520 149.847,208.721 143.813 C 206.061 134.894,205.275 131.682,204.243 125.530 C 203.295 119.877,203.281 118.783,204.107 115.489 C 204.443 114.147,204.327 113.249,203.332 109.510 C 199.994 96.971,198.170 89.099,195.966 77.724 C 193.598 65.506,191.239 49.408,190.160 38.100 C 189.912 35.495,189.249 31.897,188.596 29.615 C 187.973 27.436,187.464 25.348,187.464 24.977 C 187.464 24.257,186.510 24.046,186.119 24.678 M159.499 32.994 C 156.528 34.769,153.600 36.777,152.992 37.454 L 151.886 38.687 152.153 42.584 C 152.300 44.727,152.604 47.261,152.828 48.216 C 153.052 49.171,153.210 52.555,153.180 55.738 C 153.150 58.920,153.294 62.305,153.501 63.259 C 153.708 64.214,154.336 67.425,154.898 70.395 C 156.586 79.319,160.456 94.771,163.592 105.111 C 164.779 109.026,168.543 120.407,168.949 121.311 C 169.140 121.736,169.569 122.951,169.903 124.012 C 170.236 125.072,170.665 126.287,170.855 126.712 C 171.046 127.136,171.663 128.785,172.228 130.376 C 172.792 131.967,173.400 133.616,173.579 134.041 C 173.757 134.465,174.207 135.680,174.578 136.741 C 174.950 137.801,175.367 138.843,175.506 139.055 C 175.645 139.267,176.063 140.309,176.434 141.369 C 176.805 142.430,177.261 143.645,177.447 144.069 C 177.633 144.494,179.202 148.312,180.934 152.555 C 185.642 164.087,188.103 169.375,188.876 169.620 C 189.122 169.698,189.990 169.023,190.804 168.120 C 191.619 167.217,193.761 164.937,195.564 163.053 C 199.468 158.975,199.420 159.120,197.931 155.886 C 195.521 150.654,191.213 137.829,187.094 123.626 C 184.432 114.444,183.413 110.676,181.725 103.761 C 180.334 98.066,176.789 82.609,175.885 78.303 C 175.685 77.348,175.251 75.352,174.921 73.867 C 174.214 70.685,173.894 69.191,172.649 63.259 C 170.643 53.698,169.611 48.729,169.324 47.252 C 167.482 37.773,167.108 35.793,166.592 32.787 C 165.929 28.921,166.332 28.909,159.499 32.994 M279.846 143.320 C 249.269 148.243,217.775 167.726,198.202 193.828 C 194.443 198.841,186.692 210.549,186.692 211.214 C 186.692 211.313,186.289 212.042,185.795 212.833 C 185.302 213.624,184.196 215.574,183.338 217.165 C 182.479 218.756,181.436 220.665,181.019 221.408 C 178.783 225.389,177.676 227.467,175.315 232.112 C 173.886 234.923,172.563 237.223,172.375 237.223 C 172.188 237.223,172.035 237.599,172.035 238.059 C 172.035 238.518,171.924 238.784,171.789 238.648 C 171.488 238.347,172.296 235.271,173.228 233.173 C 173.605 232.324,174.726 229.634,175.720 227.194 C 180.801 214.719,188.355 202.003,198.324 189.143 C 200.744 186.022,201.847 184.273,201.902 183.467 C 201.947 182.827,202.182 182.236,202.426 182.155 C 203.184 181.902,205.408 178.513,206.489 175.963 C 208.082 172.205,207.844 171.311,205.431 171.977 C 203.382 172.543,203.460 172.063,205.777 169.873 C 207.734 168.022,208.375 167.020,207.602 167.020 C 206.692 167.020,197.124 173.703,194.214 176.370 C 193.578 176.954,192.137 178.170,191.013 179.072 C 187.796 181.656,183.116 185.639,175.945 191.900 C 154.912 210.261,147.457 215.534,135.621 220.421 C 126.713 224.099,115.745 226.808,109.762 226.808 C 107.079 226.808,106.305 227.261,107.704 228.013 C 109.089 228.758,111.293 229.117,116.569 229.456 C 122.003 229.806,122.319 229.945,123.033 232.299 C 124.048 235.651,130.052 251.875,131.349 254.773 C 133.796 260.242,135.006 263.941,135.385 267.117 C 136.250 274.345,137.821 277.961,141.190 280.476 C 142.222 281.246,142.673 281.969,143.056 283.465 C 143.724 286.070,143.982 286.145,145.492 284.169 C 146.195 283.250,147.683 281.467,148.799 280.208 C 149.915 278.948,153.072 274.532,155.815 270.395 C 160.841 262.814,161.933 261.322,162.235 261.624 C 162.572 261.961,161.549 267.798,160.879 269.358 C 156.066 280.575,147.260 295.526,142.802 300.050 C 140.119 302.772,139.556 302.902,140.772 300.520 C 141.630 298.837,141.417 298.513,140.175 299.614 C 135.973 303.343,135.005 303.938,135.005 302.797 C 135.005 301.836,134.813 301.834,133.481 302.783 C 131.149 304.443,129.704 304.246,126.722 301.862 C 125.242 300.679,123.841 299.711,123.608 299.711 C 122.774 299.711,117.499 295.779,113.897 292.471 C 105.504 284.767,101.471 277.596,101.452 270.346 C 101.445 267.703,101.226 267.496,97.632 266.740 C 89.625 265.056,73.195 266.599,65.284 269.778 C 35.197 281.870,24.104 296.818,30.532 316.610 C 33.379 325.377,55.972 340.970,68.685 342.942 C 71.893 343.440,75.543 343.185,78.218 342.277 C 80.125 341.630,81.933 341.830,86.079 343.150 C 87.822 343.705,88.068 343.675,94.179 342.150 C 115.384 336.857,127.849 329.405,139.677 314.947 C 144.370 309.211,151.205 299.659,151.205 298.837 C 151.205 298.715,152.102 297.170,153.197 295.403 C 156.219 290.531,157.148 288.846,160.393 282.353 C 163.086 276.964,164.350 274.278,166.748 268.852 C 170.095 261.280,174.212 252.966,175.422 251.336 C 177.672 248.305,177.933 247.801,180.124 242.237 C 182.125 237.157,183.833 233.195,185.031 230.858 C 185.357 230.222,185.770 228.083,185.948 226.106 C 186.925 215.279,205.470 190.928,225.265 174.482 C 236.024 165.543,243.749 160.344,256.702 153.326 C 258.187 152.521,259.753 151.634,260.182 151.355 C 261.810 150.294,271.696 146.828,278.689 144.866 C 279.961 144.509,281.304 144.054,281.673 143.854 C 282.041 143.654,282.735 143.488,283.216 143.485 C 283.696 143.482,284.349 143.311,284.667 143.105 C 285.444 142.603,283.864 142.673,279.846 143.320 M313.790 177.712 C 303.598 179.130,283.342 185.616,274.638 190.249 C 257.643 199.295,254.538 202.114,253.380 209.552 C 252.686 214.007,253.470 220.846,255.035 223.986 C 255.266 224.450,255.361 225.187,255.247 225.625 C 255.132 226.063,255.223 226.535,255.448 226.674 C 255.688 226.823,255.744 226.744,255.582 226.482 C 255.430 226.237,255.490 226.037,255.715 226.037 C 255.940 226.037,256.123 226.408,256.123 226.862 C 256.123 227.316,256.427 227.936,256.798 228.241 C 257.170 228.545,257.244 228.676,256.963 228.532 C 256.539 228.315,256.539 228.410,256.962 229.086 C 257.242 229.535,257.522 229.750,257.583 229.564 C 257.645 229.378,258.216 229.712,258.852 230.306 C 261.094 232.400,264.507 232.699,267.235 231.040 C 268.941 230.003,269.305 228.886,269.630 223.696 C 270.627 207.778,282.939 194.425,298.079 192.839 C 303.885 192.231,304.315 192.396,301.184 194.028 C 296.379 196.533,292.071 201.099,290.272 205.593 C 287.552 212.388,287.238 214.551,288.593 217.142 C 291.771 223.220,303.246 220.176,307.993 211.996 C 311.233 206.412,317.384 177.022,315.213 177.493 C 315.067 177.524,314.426 177.623,313.790 177.712 M207.005 229.797 C 200.154 236.678,194.762 244.176,195.346 246.013 C 195.469 246.402,195.221 248.083,194.796 249.748 C 192.901 257.156,194.972 263.127,199.059 262.036 L 200.658 261.610 200.424 262.777 C 200.125 264.275,200.975 264.966,203.135 264.983 C 208.996 265.028,215.863 257.382,217.155 249.373 C 217.326 248.312,217.832 245.808,218.280 243.807 C 219.769 237.149,219.187 231.061,216.866 229.034 C 216.314 228.552,215.117 227.420,214.206 226.519 C 212.067 224.402,212.637 224.142,207.005 229.797 M282.932 236.339 C 273.840 237.582,261.427 247.184,260.156 253.957 C 259.930 255.163,259.559 255.618,258.042 256.552 C 253.506 259.343,251.293 265.262,253.636 268.334 C 257.751 273.729,267.368 270.821,272.229 262.713 C 273.256 260.998,273.292 260.977,273.410 262.004 C 273.663 264.203,268.575 276.014,265.854 279.547 C 265.237 280.348,263.456 283.215,261.897 285.918 C 257.382 293.749,251.021 299.438,245.902 300.224 C 245.053 300.354,242.527 301.151,240.288 301.995 C 237.376 303.093,235.223 303.629,232.726 303.880 C 225.776 304.577,218.061 311.382,218.396 316.518 C 218.832 323.187,235.514 319.319,247.133 309.855 C 250.329 307.252,257.421 303.194,257.913 303.687 C 258.003 303.776,256.725 304.923,255.075 306.236 C 250.430 309.931,247.225 314.103,242.309 322.854 C 235.650 334.711,229.851 339.035,220.591 339.050 C 217.427 339.055,217.106 339.137,213.932 340.757 C 209.966 342.780,206.783 343.440,201.929 343.245 C 196.372 343.021,195.598 342.434,194.150 337.347 C 193.558 335.269,188.954 335.059,185.001 336.929 C 182.803 337.969,181.864 338.125,181.485 337.512 C 179.297 333.971,165.477 344.675,165.477 349.910 C 165.477 350.716,164.387 351.633,163.979 351.170 C 162.299 349.266,160.455 336.660,161.236 332.422 C 162.551 325.289,165.658 317.847,168.773 314.368 C 171.226 311.629,172.051 306.914,170.466 304.688 C 169.249 302.980,168.248 303.231,165.701 305.883 C 163.127 308.563,163.067 308.559,162.418 305.656 C 161.030 299.454,165.895 285.271,171.706 278.579 C 173.067 277.011,173.412 272.151,172.145 272.395 C 170.941 272.627,164.878 281.612,159.700 290.839 C 158.569 292.854,157.296 295.111,156.871 295.853 C 155.885 297.576,152.651 304.058,151.772 306.075 C 151.402 306.924,150.107 309.701,148.894 312.247 C 147.682 314.793,146.133 318.091,145.453 319.576 C 143.796 323.191,140.152 329.881,137.784 333.655 C 136.666 335.435,136.629 335.329,138.985 337.107 C 141.573 339.062,143.341 341.507,143.912 343.923 C 144.156 344.958,144.596 346.505,144.888 347.361 C 146.379 351.726,145.331 364.140,143.339 365.707 C 142.141 366.649,140.211 372.228,141.083 372.228 C 141.480 372.228,143.491 368.856,143.491 368.190 C 143.491 365.915,150.405 362.789,155.256 362.871 C 163.198 363.005,176.495 366.018,184.547 369.508 C 187.300 370.702,189.535 370.933,190.733 370.148 C 191.649 369.548,191.852 369.557,194.118 370.307 C 198.341 371.705,200.664 371.702,204.436 370.295 C 206.239 369.622,208.930 368.643,210.415 368.119 C 218.974 365.101,226.165 359.215,237.203 346.191 C 239.181 343.857,241.253 341.424,241.807 340.785 C 243.150 339.236,245.714 336.076,246.673 334.789 C 247.097 334.219,249.194 331.431,251.332 328.593 C 257.757 320.063,266.988 305.836,272.776 295.541 C 273.500 294.254,276.003 289.865,277.439 287.367 C 277.865 286.625,279.000 284.542,279.960 282.739 C 280.921 280.935,282.005 279.026,282.371 278.496 C 282.988 277.599,285.875 271.698,287.654 267.695 C 288.078 266.741,289.081 264.484,289.882 262.681 C 290.683 260.878,291.834 258.313,292.439 256.982 C 293.044 255.650,293.539 254.462,293.539 254.340 C 293.539 254.218,293.783 253.572,294.080 252.903 C 294.970 250.906,296.625 246.304,296.625 245.828 C 296.625 245.585,296.042 245.026,295.330 244.586 C 293.525 243.470,290.606 240.265,289.937 238.663 C 288.941 236.278,287.318 235.740,282.932 236.339 M132.263 315.815 C 126.688 323.034,111.415 331.118,94.889 335.599 C 94.147 335.800,91.943 336.400,89.992 336.931 C 86.225 337.958,84.474 338.142,84.474 337.512 C 84.474 337.300,84.697 337.126,84.968 337.126 C 85.240 337.126,86.932 336.504,88.729 335.742 C 90.526 334.981,93.558 333.836,95.468 333.197 C 106.650 329.457,117.534 324.185,128.833 317.038 C 131.951 315.065,133.181 314.627,132.263 315.815 " stroke="none" fill="#fa0404" fill-rule="evenodd"></path><path id="path1" d="M180.461 0.287 C 177.437 0.378,176.227 0.561,175.881 0.977 C 175.537 1.392,174.550 1.543,172.180 1.543 C 170.283 1.543,168.949 1.702,168.949 1.929 C 168.949 2.154,167.659 2.314,165.851 2.314 C 163.453 2.314,162.703 2.445,162.531 2.893 C 162.361 3.335,161.636 3.472,159.457 3.472 C 157.813 3.472,156.606 3.635,156.606 3.857 C 156.606 4.072,155.573 4.243,154.279 4.243 C 152.567 4.243,151.894 4.396,151.731 4.822 C 151.568 5.245,150.900 5.400,149.235 5.400 C 147.977 5.400,146.962 5.572,146.962 5.786 C 146.962 6.000,145.934 6.172,144.648 6.172 C 142.848 6.172,142.334 6.300,142.334 6.750 C 142.334 7.187,141.862 7.329,140.405 7.329 C 139.344 7.329,138.476 7.502,138.476 7.715 C 138.476 7.927,137.690 8.100,136.728 8.100 C 135.531 8.100,134.911 8.282,134.759 8.679 C 134.614 9.056,134.014 9.257,133.035 9.257 C 132.209 9.257,131.533 9.431,131.533 9.643 C 131.533 9.855,130.926 10.029,130.183 10.029 C 129.240 10.029,128.833 10.203,128.833 10.608 C 128.833 11.045,128.362 11.186,126.905 11.186 C 125.844 11.186,124.976 11.360,124.976 11.572 C 124.976 11.784,124.387 11.958,123.667 11.958 C 122.860 11.958,122.273 12.179,122.136 12.536 C 121.997 12.899,121.407 13.115,120.552 13.115 C 119.803 13.115,119.190 13.288,119.190 13.500 C 119.190 13.713,118.582 13.886,117.840 13.886 C 117.097 13.886,116.490 14.041,116.490 14.230 C 116.490 14.419,116.056 14.683,115.526 14.816 C 114.995 14.949,114.561 15.228,114.561 15.436 C 114.561 15.645,113.867 15.815,113.018 15.815 C 112.170 15.815,111.475 15.988,111.475 16.201 C 111.475 16.413,110.949 16.586,110.306 16.586 C 109.623 16.586,109.045 16.827,108.915 17.165 C 108.770 17.542,108.170 17.743,107.191 17.743 C 106.365 17.743,105.689 17.917,105.689 18.129 C 105.689 18.341,105.082 18.515,104.339 18.515 C 103.397 18.515,102.989 18.689,102.989 19.094 C 102.989 19.496,102.585 19.672,101.662 19.672 C 100.932 19.672,100.228 19.846,100.096 20.058 C 99.965 20.270,99.516 20.444,99.097 20.444 C 98.679 20.444,98.237 20.704,98.114 21.022 C 97.977 21.379,97.391 21.601,96.584 21.601 C 95.864 21.601,95.275 21.774,95.275 21.986 C 95.275 22.199,94.841 22.372,94.311 22.372 C 93.710 22.372,93.346 22.591,93.346 22.951 C 93.346 23.307,92.984 23.529,92.405 23.529 C 91.887 23.529,91.356 23.703,91.225 23.915 C 91.094 24.127,90.476 24.301,89.852 24.301 C 89.101 24.301,88.717 24.496,88.717 24.879 C 88.717 25.239,88.353 25.458,87.753 25.458 C 87.223 25.458,86.789 25.632,86.789 25.844 C 86.789 26.056,86.355 26.230,85.824 26.230 C 85.224 26.230,84.860 26.448,84.860 26.808 C 84.860 27.168,84.496 27.387,83.896 27.387 C 83.365 27.387,82.932 27.560,82.932 27.772 C 82.932 27.985,82.498 28.158,81.967 28.158 C 81.367 28.158,81.003 28.377,81.003 28.737 C 81.003 29.097,80.639 29.315,80.039 29.315 C 79.508 29.315,79.074 29.489,79.074 29.701 C 79.074 29.913,78.640 30.087,78.110 30.087 C 77.510 30.087,77.146 30.305,77.146 30.665 C 77.146 31.025,76.781 31.244,76.181 31.244 C 75.651 31.244,75.217 31.418,75.217 31.630 C 75.217 31.842,74.783 32.015,74.253 32.015 C 73.653 32.015,73.288 32.234,73.288 32.594 C 73.288 32.954,72.924 33.173,72.324 33.173 C 71.794 33.173,71.360 33.346,71.360 33.558 C 71.360 33.770,70.926 33.944,70.395 33.944 C 69.795 33.944,69.431 34.163,69.431 34.523 C 69.431 34.841,69.109 35.101,68.716 35.101 C 68.323 35.101,67.533 35.535,66.960 36.066 C 66.388 36.596,65.679 37.030,65.384 37.030 C 65.089 37.030,64.741 37.203,64.609 37.416 C 64.478 37.628,64.034 37.801,63.622 37.801 C 63.211 37.801,62.874 38.062,62.874 38.380 C 62.874 38.740,62.509 38.959,61.909 38.959 C 61.379 38.959,60.945 39.132,60.945 39.344 C 60.945 39.556,60.685 39.730,60.366 39.730 C 60.048 39.730,59.788 39.892,59.788 40.090 C 59.788 40.288,59.397 40.573,58.920 40.723 C 58.443 40.874,57.771 41.320,57.428 41.714 C 57.085 42.108,56.516 42.430,56.163 42.430 C 55.809 42.430,55.421 42.690,55.299 43.009 C 55.176 43.327,54.835 43.587,54.539 43.587 C 54.244 43.587,54.002 43.761,54.002 43.973 C 54.002 44.185,53.704 44.359,53.339 44.359 C 52.975 44.359,52.321 44.749,51.887 45.227 C 51.102 46.090,50.091 46.823,48.987 47.329 C 48.173 47.702,47.445 48.472,47.445 48.960 C 47.445 49.187,47.184 49.373,46.866 49.373 C 46.548 49.373,46.287 49.547,46.287 49.759 C 46.287 49.971,46.022 50.145,45.697 50.145 C 45.372 50.145,45.006 50.405,44.884 50.723 C 44.762 51.041,44.484 51.302,44.267 51.302 C 44.049 51.302,43.298 51.909,42.598 52.652 C 41.898 53.394,41.077 54.002,40.774 54.002 C 40.471 54.002,39.898 54.436,39.500 54.966 C 39.101 55.497,38.556 55.931,38.288 55.931 C 38.021 55.931,37.801 56.117,37.801 56.344 C 37.801 56.878,36.820 57.859,36.286 57.859 C 36.059 57.859,35.873 58.045,35.873 58.272 C 35.873 58.807,34.891 59.788,34.357 59.788 C 34.130 59.788,33.944 59.953,33.944 60.155 C 33.944 60.358,33.337 60.811,32.594 61.164 C 31.851 61.516,31.244 62.016,31.244 62.274 C 31.244 62.532,30.810 62.976,30.280 63.259 C 29.749 63.543,29.315 63.893,29.315 64.036 C 29.315 64.179,28.447 65.201,27.387 66.308 C 26.326 67.414,25.458 68.569,25.458 68.875 C 25.458 69.181,25.272 69.431,25.045 69.431 C 24.511 69.431,23.529 70.412,23.529 70.946 C 23.529 71.174,23.343 71.360,23.116 71.360 C 22.582 71.360,21.601 72.341,21.601 72.875 C 21.601 73.102,21.340 73.288,21.022 73.288 C 20.704 73.288,20.443 73.419,20.443 73.578 C 20.443 73.737,20.009 74.371,19.479 74.988 C 18.949 75.604,18.515 76.267,18.515 76.460 C 18.515 76.653,17.907 77.385,17.165 78.085 C 16.422 78.785,15.815 79.728,15.815 80.181 C 15.815 80.633,15.629 81.003,15.402 81.003 C 14.868 81.003,13.886 81.984,13.886 82.518 C 13.886 82.746,13.713 82.932,13.500 82.932 C 13.288 82.932,13.115 83.365,13.115 83.896 C 13.115 84.426,12.929 84.860,12.701 84.860 C 12.021 84.860,11.186 85.907,11.186 86.761 C 11.186 87.214,10.936 87.560,10.608 87.560 C 10.289 87.560,10.029 87.821,10.029 88.139 C 10.029 88.457,9.855 88.717,9.643 88.717 C 9.431 88.717,9.257 89.151,9.257 89.682 C 9.257 90.212,9.071 90.646,8.844 90.646 C 8.163 90.646,7.329 91.693,7.329 92.547 C 7.329 93.000,7.078 93.346,6.750 93.346 C 6.390 93.346,6.172 93.710,6.172 94.311 C 6.172 94.841,5.998 95.275,5.786 95.275 C 5.574 95.275,5.400 95.690,5.400 96.198 C 5.400 96.706,5.140 97.221,4.822 97.343 C 4.483 97.473,4.243 98.051,4.243 98.734 C 4.243 99.377,4.069 99.904,3.857 99.904 C 3.645 99.904,3.472 100.319,3.472 100.827 C 3.472 101.334,3.211 101.850,2.893 101.972 C 2.530 102.111,2.314 102.701,2.314 103.556 C 2.314 104.305,2.141 104.918,1.929 104.918 C 1.716 104.918,1.543 105.526,1.543 106.268 C 1.543 107.148,1.361 107.618,1.019 107.618 C -0.004 107.618,-0.525 122.368,0.463 123.356 C 0.744 123.637,2.115 123.819,3.962 123.819 C 6.147 123.819,7.161 123.981,7.577 124.397 C 7.895 124.716,8.577 124.976,9.092 124.976 C 9.607 124.976,10.029 125.149,10.029 125.362 C 10.029 125.574,10.362 125.747,10.769 125.747 C 11.605 125.747,13.880 126.945,13.884 127.387 C 13.885 127.546,14.320 127.676,14.851 127.676 C 15.451 127.676,15.815 127.895,15.815 128.255 C 15.815 128.573,16.075 128.833,16.393 128.833 C 16.712 128.833,16.972 129.007,16.972 129.219 C 16.972 129.431,17.241 129.605,17.569 129.605 C 17.897 129.605,18.568 130.039,19.060 130.569 C 19.551 131.099,20.324 131.533,20.777 131.533 C 21.230 131.533,21.601 131.719,21.601 131.947 C 21.601 132.481,22.582 133.462,23.116 133.462 C 23.343 133.462,23.529 133.660,23.529 133.902 C 23.529 134.494,24.721 135.363,25.554 135.378 C 25.926 135.385,26.230 135.651,26.230 135.969 C 26.230 136.287,26.410 136.548,26.630 136.548 C 26.850 136.548,27.789 137.329,28.717 138.284 C 29.645 139.238,30.593 140.019,30.824 140.019 C 31.055 140.019,31.244 140.205,31.244 140.433 C 31.244 140.967,32.225 141.948,32.759 141.948 C 32.987 141.948,33.173 142.134,33.173 142.361 C 33.173 142.589,33.421 143.022,33.724 143.326 C 34.027 143.629,34.461 143.877,34.688 143.877 C 34.915 143.877,35.101 144.063,35.101 144.290 C 35.101 144.824,36.083 145.805,36.617 145.805 C 36.844 145.805,37.030 145.980,37.030 146.194 C 37.030 146.407,38.245 147.795,39.730 149.277 C 41.215 150.759,42.430 152.045,42.430 152.134 C 42.430 152.305,43.692 153.859,44.841 155.103 C 45.212 155.505,45.516 155.933,45.516 156.055 C 45.516 156.433,46.598 157.377,47.031 157.377 C 47.259 157.377,47.445 157.563,47.445 157.790 C 47.445 158.278,48.408 159.306,48.866 159.306 C 49.041 159.306,49.432 159.863,49.733 160.545 C 50.035 161.226,50.685 162.158,51.178 162.614 C 51.670 163.071,52.073 163.600,52.073 163.790 C 52.073 163.980,52.507 164.603,53.038 165.175 C 53.568 165.747,54.002 166.396,54.002 166.618 C 54.002 166.839,54.188 167.020,54.415 167.020 C 55.096 167.020,55.931 168.067,55.931 168.921 C 55.931 169.374,56.181 169.720,56.509 169.720 C 56.827 169.720,57.088 169.906,57.088 170.134 C 57.088 170.361,57.336 170.795,57.639 171.098 C 57.942 171.401,58.376 171.649,58.603 171.649 C 58.830 171.649,59.016 172.083,59.016 172.613 C 59.016 173.144,59.190 173.578,59.402 173.578 C 59.614 173.578,59.788 173.838,59.788 174.156 C 59.788 174.474,60.048 174.735,60.366 174.735 C 60.688 174.735,60.945 175.078,60.945 175.506 C 60.945 175.931,61.119 176.278,61.331 176.278 C 61.543 176.278,61.716 176.538,61.716 176.856 C 61.716 177.175,61.977 177.435,62.295 177.435 C 62.613 177.435,62.874 177.695,62.874 178.014 C 62.874 178.332,63.047 178.592,63.259 178.592 C 63.472 178.592,63.645 178.927,63.645 179.336 C 63.645 179.744,64.079 180.420,64.609 180.838 C 65.140 181.255,65.574 181.860,65.574 182.182 C 65.574 182.505,66.181 183.394,66.924 184.159 C 67.666 184.924,68.274 185.812,68.274 186.133 C 68.274 186.454,68.534 186.817,68.852 186.939 C 69.171 187.061,69.431 187.402,69.431 187.698 C 69.431 187.993,69.605 188.235,69.817 188.235 C 70.029 188.235,70.203 188.501,70.203 188.826 C 70.203 189.151,70.463 189.517,70.781 189.639 C 71.099 189.761,71.360 190.103,71.360 190.398 C 71.360 190.694,71.533 190.935,71.745 190.935 C 71.958 190.935,72.131 191.188,72.131 191.496 C 72.131 191.805,72.565 192.491,73.095 193.022 C 73.626 193.552,74.060 194.260,74.060 194.594 C 74.060 194.929,74.320 195.303,74.638 195.425 C 74.957 195.547,75.217 195.888,75.217 196.184 C 75.217 196.480,75.391 196.721,75.603 196.721 C 75.815 196.721,75.988 197.044,75.988 197.439 C 75.988 197.833,76.422 198.482,76.953 198.880 C 77.484 199.279,77.917 199.997,77.917 200.477 C 77.917 200.996,78.152 201.350,78.496 201.350 C 78.814 201.350,79.074 201.610,79.074 201.929 C 79.074 202.247,79.248 202.507,79.460 202.507 C 79.672 202.507,79.846 202.941,79.846 203.472 C 79.846 204.072,80.064 204.436,80.424 204.436 C 80.781 204.436,81.003 204.798,81.003 205.377 C 81.003 205.895,81.176 206.426,81.389 206.557 C 81.601 206.688,81.761 207.089,81.744 207.448 C 81.720 207.961,81.666 207.981,81.493 207.539 C 81.371 207.231,80.960 206.643,80.578 206.234 C 80.196 205.824,79.782 205.023,79.657 204.454 C 79.434 203.439,76.760 200.524,76.760 201.296 C 76.760 201.513,76.933 201.798,77.146 201.929 C 77.358 202.060,77.531 202.680,77.531 203.307 C 77.531 203.933,77.705 204.791,77.917 205.213 C 78.129 205.634,78.476 206.324,78.689 206.745 C 78.901 207.166,79.080 207.817,79.087 208.191 C 79.104 209.102,80.397 210.608,81.161 210.608 C 81.619 210.608,81.774 210.997,81.774 212.150 C 81.774 213.265,81.935 213.693,82.353 213.693 C 82.780 213.693,82.932 214.141,82.932 215.406 C 82.932 216.349,83.105 217.227,83.317 217.358 C 83.529 217.489,83.703 218.020,83.703 218.538 C 83.703 219.117,83.925 219.479,84.282 219.479 C 84.642 219.479,84.860 219.844,84.860 220.444 C 84.860 220.974,85.034 221.408,85.246 221.408 C 85.458 221.408,85.632 221.668,85.632 221.986 C 85.632 222.305,85.818 222.565,86.045 222.565 C 86.559 222.565,87.560 223.539,87.560 224.039 C 87.560 224.244,87.821 224.511,88.139 224.633 C 88.457 224.755,88.717 225.208,88.717 225.639 C 88.717 226.070,88.873 226.422,89.063 226.422 C 89.253 226.422,89.497 227.073,89.606 227.869 C 89.946 230.358,90.693 232.980,91.063 232.980 C 91.258 232.980,91.418 233.577,91.418 234.307 C 91.418 235.037,91.591 235.742,91.803 235.873 C 92.015 236.004,92.189 236.801,92.189 237.643 C 92.189 238.650,92.388 239.252,92.768 239.398 C 93.198 239.563,93.346 240.249,93.346 242.086 C 93.346 243.472,93.515 244.552,93.732 244.552 C 93.944 244.552,94.118 244.738,94.118 244.965 C 94.118 245.748,93.013 246.480,91.831 246.480 C 91.179 246.480,90.646 246.654,90.646 246.866 C 90.646 247.078,90.293 247.252,89.863 247.252 C 89.432 247.252,88.979 247.512,88.857 247.830 C 88.701 248.236,88.069 248.409,86.748 248.409 C 85.709 248.409,84.860 248.560,84.860 248.745 C 84.860 248.930,84.166 249.193,83.317 249.328 C 82.469 249.464,81.774 249.747,81.774 249.956 C 81.774 250.166,81.264 250.338,80.640 250.338 C 80.016 250.338,79.398 250.511,79.267 250.723 C 79.136 250.935,78.605 251.109,78.087 251.109 C 77.507 251.109,77.146 251.331,77.146 251.688 C 77.146 252.090,76.741 252.266,75.818 252.266 C 75.088 252.266,74.384 252.440,74.253 252.652 C 74.122 252.864,73.672 253.038,73.253 253.038 C 72.835 253.038,72.393 253.298,72.271 253.616 C 72.149 253.934,71.633 254.195,71.126 254.195 C 70.618 254.195,70.203 254.368,70.203 254.581 C 70.203 254.793,69.868 254.966,69.459 254.966 C 69.049 254.966,68.454 255.227,68.136 255.545 C 67.818 255.863,67.281 256.123,66.944 256.123 C 66.267 256.123,63.142 257.974,62.938 258.495 C 62.867 258.676,62.390 258.824,61.877 258.824 C 61.306 258.824,60.945 259.047,60.945 259.402 C 60.945 259.762,60.581 259.981,59.981 259.981 C 59.450 259.981,59.016 260.154,59.016 260.366 C 59.016 260.579,58.582 260.752,58.052 260.752 C 57.452 260.752,57.088 260.971,57.088 261.331 C 57.088 261.649,56.827 261.909,56.509 261.909 C 56.191 261.909,55.931 262.083,55.931 262.295 C 55.931 262.507,55.497 262.681,54.966 262.681 C 54.366 262.681,54.002 262.899,54.002 263.259 C 54.002 263.581,53.659 263.838,53.230 263.838 C 52.806 263.838,52.459 264.012,52.459 264.224 C 52.459 264.436,52.199 264.609,51.880 264.609 C 51.562 264.609,51.302 264.870,51.302 265.188 C 51.302 265.548,50.938 265.767,50.338 265.767 C 49.807 265.767,49.373 265.940,49.373 266.152 C 49.373 266.365,49.113 266.538,48.795 266.538 C 48.476 266.538,48.216 266.736,48.216 266.978 C 48.216 267.571,47.025 268.439,46.191 268.454 C 45.820 268.461,45.516 268.727,45.516 269.045 C 45.516 269.364,45.341 269.624,45.128 269.624 C 44.914 269.624,43.526 270.839,42.044 272.324 C 40.562 273.809,39.183 275.024,38.979 275.024 C 38.775 275.024,38.174 275.458,37.644 275.988 C 37.113 276.519,36.498 276.953,36.276 276.953 C 36.054 276.953,35.873 277.139,35.873 277.366 C 35.873 277.900,34.891 278.881,34.357 278.881 C 34.130 278.881,33.944 279.067,33.944 279.295 C 33.944 279.829,32.963 280.810,32.429 280.810 C 32.201 280.810,32.015 280.973,32.015 281.173 C 32.015 281.373,31.148 282.441,30.087 283.548 C 29.026 284.654,28.158 285.792,28.158 286.078 C 28.158 286.363,27.985 286.596,27.772 286.596 C 27.560 286.596,27.387 287.011,27.387 287.519 C 27.387 288.027,27.126 288.542,26.808 288.664 C 26.490 288.786,26.230 289.239,26.230 289.670 C 26.230 290.101,26.056 290.453,25.844 290.453 C 25.632 290.453,25.458 290.786,25.458 291.193 C 25.458 291.601,25.215 292.425,24.918 293.026 C 23.972 294.939,23.530 296.814,23.517 298.967 C 23.510 300.193,23.270 301.371,22.939 301.810 C 22.178 302.815,22.187 306.413,22.951 307.177 C 23.294 307.521,23.529 308.464,23.529 309.496 C 23.529 310.454,23.703 311.344,23.915 311.475 C 24.127 311.607,24.301 312.311,24.301 313.041 C 24.301 313.964,24.477 314.368,24.879 314.368 C 25.239 314.368,25.458 314.733,25.458 315.333 C 25.458 315.863,25.632 316.297,25.844 316.297 C 26.056 316.297,26.233 316.601,26.236 316.972 C 26.240 317.343,26.674 318.056,27.200 318.555 C 27.727 319.055,28.158 319.793,28.158 320.195 C 28.158 320.597,28.419 320.926,28.737 320.926 C 29.055 320.926,29.315 321.112,29.315 321.339 C 29.315 321.873,30.297 322.854,30.831 322.854 C 31.058 322.854,31.244 323.040,31.244 323.268 C 31.244 323.802,32.225 324.783,32.759 324.783 C 32.987 324.783,33.173 324.969,33.173 325.196 C 33.173 325.730,34.154 326.712,34.688 326.712 C 34.915 326.712,35.101 326.898,35.101 327.125 C 35.101 327.659,36.083 328.640,36.617 328.640 C 36.844 328.640,37.030 328.826,37.030 329.054 C 37.030 329.588,38.011 330.569,38.545 330.569 C 38.773 330.569,38.959 330.755,38.959 330.982 C 38.959 331.663,40.006 332.498,40.860 332.498 C 41.299 332.498,41.659 332.738,41.659 333.032 C 41.659 333.326,42.266 333.855,43.009 334.208 C 43.751 334.560,44.359 335.014,44.359 335.216 C 44.359 335.418,44.619 335.583,44.937 335.583 C 45.256 335.583,45.516 335.757,45.516 335.969 C 45.516 336.181,45.950 336.355,46.480 336.355 C 47.011 336.355,47.445 336.541,47.445 336.768 C 47.445 337.436,48.485 338.284,49.304 338.284 C 49.721 338.284,50.162 338.544,50.284 338.862 C 50.406 339.180,50.859 339.441,51.290 339.441 C 51.721 339.441,52.073 339.614,52.073 339.826 C 52.073 340.039,52.334 340.212,52.652 340.212 C 52.970 340.212,53.230 340.398,53.230 340.625 C 53.230 341.247,54.249 342.141,54.957 342.141 C 55.301 342.141,55.984 342.575,56.475 343.105 C 56.967 343.635,57.740 344.069,58.193 344.069 C 58.646 344.069,59.016 344.240,59.016 344.448 C 59.016 344.656,59.450 344.935,59.981 345.068 C 60.511 345.201,60.945 345.465,60.945 345.654 C 60.945 345.843,61.379 345.998,61.909 345.998 C 62.440 345.998,62.874 346.172,62.874 346.384 C 62.874 346.596,63.481 346.770,64.224 346.770 C 65.167 346.770,65.574 346.944,65.574 347.348 C 65.574 347.750,65.978 347.927,66.901 347.927 C 67.631 347.927,68.336 348.100,68.467 348.312 C 68.598 348.525,69.284 348.698,69.991 348.698 C 70.778 348.698,71.363 348.923,71.499 349.277 C 71.651 349.673,72.271 349.855,73.469 349.855 C 74.430 349.855,75.217 350.029,75.217 350.241 C 75.217 350.455,76.232 350.627,77.490 350.627 C 79.155 350.627,79.823 350.782,79.985 351.205 C 80.164 351.671,81.036 351.784,84.462 351.784 C 87.042 351.784,88.717 351.936,88.717 352.170 C 88.717 352.382,88.986 352.555,89.314 352.555 C 89.643 352.555,90.314 352.989,90.805 353.520 C 91.297 354.050,92.122 354.484,92.638 354.484 C 93.155 354.484,93.792 354.698,94.053 354.960 C 94.430 355.336,94.575 355.256,94.754 354.574 C 95.219 352.795,96.046 353.610,96.046 355.846 C 96.046 357.387,96.207 358.042,96.625 358.202 C 96.943 358.324,97.203 358.591,97.203 358.796 C 97.203 359.296,98.204 360.270,98.719 360.270 C 98.946 360.270,99.132 360.456,99.132 360.683 C 99.132 361.217,100.113 362.199,100.647 362.199 C 100.875 362.199,101.061 362.385,101.061 362.612 C 101.061 363.146,102.042 364.127,102.576 364.127 C 102.803 364.127,102.989 364.313,102.989 364.541 C 102.989 365.075,103.971 366.056,104.505 366.056 C 104.732 366.056,104.918 366.254,104.918 366.496 C 104.918 367.088,106.109 367.957,106.943 367.972 C 107.314 367.979,107.618 368.245,107.618 368.563 C 107.618 368.881,107.798 369.142,108.018 369.142 C 108.238 369.142,109.178 369.923,110.105 370.878 C 111.043 371.843,112.150 372.613,112.598 372.613 C 113.057 372.613,113.404 372.862,113.404 373.192 C 113.404 373.510,113.559 373.770,113.749 373.770 C 113.939 373.770,114.503 374.201,115.003 374.728 C 115.503 375.255,116.215 375.689,116.586 375.692 C 116.958 375.696,117.261 375.873,117.261 376.085 C 117.261 376.297,117.503 376.471,117.799 376.471 C 118.094 376.471,118.436 376.731,118.558 377.049 C 118.688 377.387,119.266 377.628,119.949 377.628 C 120.592 377.628,121.119 377.801,121.119 378.014 C 121.119 378.226,121.553 378.399,122.083 378.399 C 122.683 378.399,123.047 378.618,123.047 378.978 C 123.047 379.338,123.412 379.556,124.012 379.556 C 124.542 379.556,124.976 379.730,124.976 379.942 C 124.976 380.154,125.410 380.328,125.940 380.328 C 126.540 380.328,126.905 380.546,126.905 380.906 C 126.905 381.266,127.269 381.485,127.869 381.485 C 128.399 381.485,128.833 381.659,128.833 381.871 C 128.833 382.083,129.249 382.257,129.756 382.257 C 130.264 382.257,130.779 382.517,130.901 382.835 C 131.031 383.173,131.609 383.414,132.293 383.414 C 132.936 383.414,133.462 383.587,133.462 383.799 C 133.462 384.012,133.896 384.185,134.426 384.185 C 134.981 384.185,135.391 384.407,135.391 384.709 C 135.391 385.343,138.547 385.730,143.644 385.723 C 147.650 385.717,148.891 385.479,148.891 384.719 C 148.891 384.425,149.065 384.185,149.277 384.185 C 149.520 384.185,149.662 381.549,149.662 377.049 C 149.662 370.963,149.748 369.913,150.241 369.913 C 150.601 369.913,150.820 369.549,150.820 368.949 C 150.820 368.184,151.014 367.985,151.761 367.985 C 152.279 367.985,152.810 367.811,152.941 367.599 C 153.259 367.084,164.195 367.084,164.513 367.599 C 164.644 367.811,166.229 367.985,168.035 367.985 C 170.439 367.985,171.473 368.139,171.897 368.563 C 172.215 368.881,173.157 369.142,173.991 369.142 C 174.824 369.142,175.506 369.315,175.506 369.527 C 175.506 369.740,176.201 369.913,177.049 369.913 C 177.898 369.913,178.592 370.083,178.592 370.292 C 178.592 370.500,179.026 370.779,179.556 370.912 C 180.087 371.045,180.521 371.309,180.521 371.498 C 180.521 371.687,181.128 371.842,181.871 371.842 C 182.613 371.842,183.221 372.015,183.221 372.228 C 183.221 372.440,183.655 372.613,184.185 372.613 C 184.785 372.613,185.149 372.832,185.149 373.192 C 185.149 373.610,185.578 373.770,186.692 373.770 C 187.541 373.770,188.235 373.944,188.235 374.156 C 188.235 374.368,188.564 374.542,188.965 374.542 C 189.367 374.542,189.796 374.802,189.918 375.121 C 190.040 375.439,190.492 375.699,190.923 375.699 C 191.354 375.699,191.707 375.873,191.707 376.085 C 191.707 376.297,191.949 376.471,192.244 376.471 C 192.540 376.471,192.881 376.731,193.004 377.049 C 193.133 377.387,193.711 377.628,194.395 377.628 C 195.038 377.628,195.564 377.801,195.564 378.014 C 195.564 378.252,197.621 378.399,200.964 378.399 C 204.307 378.399,206.365 378.252,206.365 378.014 C 206.365 377.801,206.972 377.628,207.715 377.628 C 208.657 377.628,209.065 377.453,209.065 377.049 C 209.065 376.689,209.429 376.471,210.029 376.471 C 210.559 376.471,210.993 376.297,210.993 376.085 C 210.993 375.873,211.427 375.699,211.958 375.699 C 212.488 375.699,212.922 375.513,212.922 375.286 C 212.922 374.605,213.969 373.770,214.823 373.770 C 215.276 373.770,215.622 373.520,215.622 373.192 C 215.622 372.874,215.882 372.613,216.201 372.613 C 216.519 372.613,216.779 372.440,216.779 372.228 C 216.779 372.015,217.114 371.842,217.523 371.842 C 217.932 371.842,218.607 371.408,219.025 370.878 C 219.442 370.347,219.975 369.913,220.210 369.913 C 220.444 369.913,220.636 369.751,220.636 369.553 C 220.636 369.356,221.022 369.071,221.494 368.922 C 221.966 368.772,223.088 367.892,223.987 366.967 C 224.886 366.042,225.802 365.284,226.022 365.284 C 226.242 365.284,226.422 365.024,226.422 364.706 C 226.422 364.388,226.706 364.127,227.053 364.127 C 227.400 364.127,228.086 363.693,228.578 363.163 C 229.069 362.633,229.579 362.199,229.710 362.199 C 230.103 362.199,231.051 361.128,231.051 360.683 C 231.051 360.456,231.237 360.270,231.464 360.270 C 231.998 360.270,232.980 359.289,232.980 358.755 C 232.980 358.527,233.166 358.341,233.393 358.341 C 233.896 358.341,234.908 357.372,234.908 356.891 C 234.908 356.700,235.342 356.311,235.873 356.027 C 236.403 355.743,236.837 355.354,236.837 355.163 C 236.837 354.682,237.850 353.713,238.352 353.713 C 238.580 353.713,238.766 353.527,238.766 353.299 C 238.766 352.765,239.747 351.784,240.281 351.784 C 240.508 351.784,240.694 351.598,240.694 351.371 C 240.694 350.837,241.676 349.855,242.210 349.855 C 242.437 349.855,242.623 349.669,242.623 349.442 C 242.623 348.908,243.604 347.927,244.138 347.927 C 244.366 347.927,244.552 347.741,244.552 347.513 C 244.552 347.011,245.521 345.998,246.002 345.998 C 246.193 345.998,246.582 345.564,246.866 345.034 C 247.150 344.503,247.539 344.069,247.730 344.069 C 248.211 344.069,249.180 343.057,249.180 342.554 C 249.180 342.327,249.441 342.141,249.759 342.141 C 250.077 342.141,250.338 341.994,250.338 341.814 C 250.338 341.635,250.945 340.862,251.688 340.098 C 252.430 339.333,253.038 338.439,253.038 338.110 C 253.038 337.781,253.298 337.512,253.616 337.512 C 253.934 337.512,254.195 337.350,254.195 337.151 C 254.195 336.952,255.236 335.712,256.509 334.395 C 257.782 333.078,258.824 331.678,258.824 331.285 C 258.824 330.891,259.010 330.569,259.237 330.569 C 259.726 330.569,260.752 329.605,260.752 329.145 C 260.752 328.968,261.186 328.498,261.716 328.099 C 262.247 327.701,262.681 327.052,262.681 326.658 C 262.681 326.263,262.854 325.940,263.067 325.940 C 263.279 325.940,263.452 325.680,263.452 325.362 C 263.452 325.043,263.638 324.783,263.866 324.783 C 264.380 324.783,265.381 323.809,265.381 323.309 C 265.381 323.104,265.641 322.837,265.959 322.715 C 266.278 322.593,266.538 322.215,266.538 321.875 C 266.538 321.172,267.434 320.154,268.053 320.154 C 268.281 320.154,268.467 319.894,268.467 319.576 C 268.467 319.257,268.640 318.997,268.852 318.997 C 269.065 318.997,269.238 318.728,269.238 318.400 C 269.238 318.072,269.672 317.401,270.203 316.909 C 270.733 316.418,271.167 315.819,271.167 315.578 C 271.167 315.337,271.427 315.140,271.745 315.140 C 272.067 315.140,272.324 314.797,272.324 314.368 C 272.324 313.944,272.498 313.597,272.710 313.597 C 272.922 313.597,273.095 313.337,273.095 313.018 C 273.095 312.700,273.313 312.440,273.580 312.440 C 273.846 312.440,274.306 311.893,274.602 311.225 C 275.388 309.450,276.413 308.582,277.724 308.582 C 278.361 308.582,278.881 308.409,278.881 308.197 C 278.881 307.985,279.315 307.811,279.846 307.811 C 280.446 307.811,280.810 307.592,280.810 307.232 C 280.810 306.828,281.217 306.654,282.160 306.654 C 282.903 306.654,283.510 306.480,283.510 306.268 C 283.510 306.056,283.944 305.882,284.474 305.882 C 285.074 305.882,285.439 305.664,285.439 305.304 C 285.439 304.944,285.803 304.725,286.403 304.725 C 286.933 304.725,287.367 304.552,287.367 304.339 C 287.367 304.127,287.720 303.954,288.151 303.954 C 288.582 303.954,289.034 303.693,289.157 303.375 C 289.279 303.057,289.620 302.797,289.916 302.797 C 290.211 302.797,290.453 302.623,290.453 302.411 C 290.453 302.199,290.887 302.025,291.418 302.025 C 292.018 302.025,292.382 301.806,292.382 301.446 C 292.382 301.086,292.746 300.868,293.346 300.868 C 293.877 300.868,294.311 300.694,294.311 300.482 C 294.311 300.270,294.744 300.096,295.275 300.096 C 295.875 300.096,296.239 299.878,296.239 299.518 C 296.239 299.196,296.582 298.939,297.011 298.939 C 297.435 298.939,297.782 298.766,297.782 298.554 C 297.782 298.341,298.042 298.168,298.361 298.168 C 298.679 298.168,298.939 297.907,298.939 297.589 C 298.939 297.229,299.304 297.011,299.904 297.011 C 300.434 297.011,300.868 296.837,300.868 296.625 C 300.868 296.413,301.128 296.239,301.446 296.239 C 301.765 296.239,302.025 296.069,302.025 295.861 C 302.025 295.653,302.459 295.373,302.989 295.240 C 303.520 295.107,303.954 294.844,303.954 294.654 C 303.954 294.465,304.238 294.311,304.585 294.311 C 304.931 294.311,305.617 293.877,306.109 293.346 C 306.601 292.816,307.228 292.382,307.503 292.382 C 307.779 292.381,308.686 291.774,309.520 291.032 C 310.355 290.289,311.241 289.682,311.491 289.682 C 311.741 289.682,312.264 289.258,312.653 288.741 C 313.041 288.223,313.760 287.699,314.250 287.576 C 314.739 287.453,315.140 287.182,315.140 286.974 C 315.140 286.766,315.326 286.596,315.553 286.596 C 316.087 286.596,317.068 285.615,317.068 285.081 C 317.068 284.853,317.329 284.667,317.647 284.667 C 317.965 284.667,318.226 284.494,318.226 284.282 C 318.226 284.069,318.548 283.896,318.943 283.896 C 319.338 283.896,319.986 283.462,320.385 282.932 C 320.783 282.401,321.328 281.967,321.596 281.967 C 321.864 281.967,322.083 281.707,322.083 281.389 C 322.083 281.067,322.426 280.810,322.854 280.810 C 323.279 280.810,323.626 280.636,323.626 280.424 C 323.626 280.212,323.886 280.039,324.204 280.039 C 324.523 280.039,324.783 279.778,324.783 279.460 C 324.783 279.142,324.969 278.881,325.196 278.881 C 325.730 278.881,326.712 277.900,326.712 277.366 C 326.712 277.139,326.898 276.953,327.125 276.953 C 327.659 276.953,328.640 275.971,328.640 275.437 C 328.640 275.210,328.826 275.024,329.054 275.024 C 329.588 275.024,330.569 274.043,330.569 273.509 C 330.569 273.281,330.755 273.095,330.982 273.095 C 331.516 273.095,332.498 272.114,332.498 271.580 C 332.498 271.353,332.684 271.167,332.911 271.167 C 333.445 271.167,334.426 270.185,334.426 269.651 C 334.426 269.424,334.688 269.238,335.008 269.238 C 335.494 269.238,335.510 269.366,335.107 270.011 C 334.751 270.582,334.735 270.960,335.047 271.457 C 335.608 272.352,337.126 272.582,337.126 271.772 C 337.126 271.439,337.387 271.167,337.705 271.167 C 338.023 271.167,338.284 270.993,338.284 270.781 C 338.284 270.569,338.606 270.395,339.001 270.395 C 339.396 270.395,340.044 269.961,340.443 269.431 C 340.841 268.901,341.311 268.467,341.488 268.467 C 341.948 268.467,342.912 267.441,342.912 266.951 C 342.912 266.724,343.098 266.538,343.326 266.538 C 343.860 266.538,344.841 265.557,344.841 265.023 C 344.841 264.795,345.027 264.609,345.254 264.609 C 345.788 264.609,346.770 263.628,346.770 263.094 C 346.770 262.867,346.956 262.681,347.183 262.681 C 347.717 262.681,348.698 261.699,348.698 261.165 C 348.698 260.938,348.884 260.752,349.111 260.752 C 349.792 260.752,350.627 259.705,350.627 258.851 C 350.627 258.398,350.877 258.052,351.205 258.052 C 351.524 258.052,351.784 257.792,351.784 257.473 C 351.784 257.155,351.958 256.895,352.170 256.895 C 352.382 256.895,352.555 256.461,352.555 255.931 C 352.555 255.400,352.753 254.966,352.995 254.966 C 353.575 254.966,354.456 253.782,354.472 252.982 C 354.479 252.634,354.744 252.249,355.063 252.127 C 355.381 252.005,355.641 251.552,355.641 251.121 C 355.641 250.690,355.815 250.338,356.027 250.338 C 356.239 250.338,356.413 249.922,356.413 249.414 C 356.413 248.907,356.673 248.391,356.991 248.269 C 357.310 248.147,357.570 247.695,357.570 247.264 C 357.570 246.833,357.743 246.480,357.956 246.480 C 358.168 246.480,358.341 246.175,358.341 245.801 C 358.341 245.428,358.775 244.654,359.306 244.082 C 359.836 243.510,360.270 242.688,360.270 242.254 C 360.270 241.820,360.404 241.466,360.568 241.466 C 360.732 241.466,361.185 240.815,361.575 240.019 C 361.965 239.224,362.439 238.271,362.627 237.903 C 362.816 237.535,362.970 236.958,362.970 236.622 C 362.970 236.286,363.230 235.750,363.549 235.432 C 363.867 235.114,364.127 234.432,364.127 233.917 C 364.127 233.401,364.301 232.980,364.513 232.980 C 364.725 232.980,364.899 232.391,364.899 231.671 C 364.899 230.863,365.120 230.277,365.477 230.140 C 365.840 230.001,366.056 229.411,366.056 228.556 C 366.056 227.807,366.230 227.194,366.442 227.194 C 366.654 227.194,366.827 226.605,366.827 225.885 C 366.827 225.078,367.049 224.491,367.406 224.354 C 367.802 224.202,367.985 223.582,367.985 222.384 C 367.985 221.423,368.158 220.636,368.370 220.636 C 368.582 220.636,368.756 219.787,368.756 218.749 C 368.756 217.427,368.929 216.795,369.335 216.640 C 369.760 216.476,369.913 215.803,369.913 214.091 C 369.913 212.797,370.084 211.765,370.299 211.765 C 370.524 211.765,370.685 210.470,370.685 208.651 C 370.685 206.398,370.845 205.378,371.263 204.959 C 371.605 204.618,371.842 203.675,371.842 202.660 C 371.842 201.487,371.658 200.870,371.263 200.718 C 370.783 200.534,370.685 199.462,370.685 194.388 C 370.685 190.733,370.530 188.185,370.299 188.042 C 370.087 187.911,369.913 186.854,369.913 185.693 C 369.913 184.173,369.751 183.520,369.335 183.360 C 368.978 183.223,368.756 182.637,368.756 181.830 C 368.756 181.110,368.582 180.521,368.370 180.521 C 368.158 180.521,367.985 179.908,367.985 179.159 C 367.985 178.304,367.769 177.714,367.406 177.574 C 367.049 177.437,366.827 176.851,366.827 176.044 C 366.827 175.324,366.654 174.735,366.442 174.735 C 366.230 174.735,366.056 174.301,366.056 173.770 C 366.056 173.170,365.837 172.806,365.477 172.806 C 365.117 172.806,364.899 172.442,364.899 171.842 C 364.899 171.311,364.725 170.878,364.513 170.878 C 364.301 170.878,364.127 170.444,364.127 169.913 C 364.127 169.346,363.906 168.949,363.590 168.949 C 362.980 168.949,362.616 168.220,362.866 167.502 C 362.959 167.237,363.280 167.020,363.581 167.020 C 363.881 167.020,364.127 166.858,364.127 166.661 C 364.127 166.463,364.518 166.177,364.995 166.027 C 365.473 165.876,366.144 165.430,366.487 165.036 C 366.830 164.642,367.400 164.320,367.753 164.320 C 368.106 164.320,368.494 164.060,368.617 163.742 C 368.739 163.423,369.254 163.163,369.762 163.163 C 370.269 163.163,370.685 163.008,370.685 162.819 C 370.685 162.630,371.119 162.366,371.649 162.233 C 372.179 162.100,372.613 161.821,372.613 161.613 C 372.613 161.405,372.950 161.234,373.362 161.234 C 373.774 161.234,374.218 161.061,374.349 160.849 C 374.480 160.636,374.930 160.463,375.348 160.463 C 375.767 160.463,376.209 160.203,376.331 159.884 C 376.468 159.527,377.054 159.306,377.862 159.306 C 378.582 159.306,379.171 159.132,379.171 158.920 C 379.171 158.708,379.853 158.534,380.686 158.534 C 381.519 158.534,382.462 158.274,382.780 157.956 C 383.612 157.124,389.200 157.124,389.200 157.956 C 389.200 158.360,389.607 158.534,390.550 158.534 C 391.292 158.534,391.900 158.720,391.900 158.947 C 391.900 159.174,392.290 159.304,392.768 159.236 C 393.726 159.100,394.370 155.448,393.436 155.448 C 392.885 155.448,391.900 154.477,391.900 153.933 C 391.900 153.706,391.389 153.520,390.765 153.520 C 390.141 153.520,389.524 153.346,389.392 153.134 C 389.069 152.610,370.430 152.610,370.106 153.134 C 369.975 153.346,368.836 153.520,367.576 153.520 C 365.796 153.520,365.284 153.649,365.284 154.098 C 365.284 154.536,364.813 154.677,363.356 154.677 C 362.295 154.677,361.427 154.851,361.427 155.063 C 361.427 155.275,361.006 155.448,360.490 155.448 C 359.975 155.448,359.293 155.709,358.975 156.027 C 358.657 156.345,357.965 156.606,357.437 156.606 C 356.909 156.606,356.376 156.823,356.252 157.088 C 356.072 157.473,355.982 157.473,355.802 157.088 C 355.678 156.823,355.331 156.606,355.031 156.606 C 354.730 156.606,354.484 156.420,354.484 156.192 C 354.484 155.965,354.236 155.531,353.933 155.228 C 353.630 154.925,353.196 154.677,352.969 154.677 C 352.741 154.677,352.555 154.491,352.555 154.264 C 352.555 153.730,351.574 152.748,351.040 152.748 C 350.813 152.748,350.627 152.562,350.627 152.335 C 350.627 152.108,350.379 151.674,350.076 151.371 C 349.773 151.068,349.339 150.820,349.111 150.820 C 348.884 150.820,348.698 150.649,348.698 150.441 C 348.698 150.233,348.264 149.954,347.734 149.821 C 347.203 149.688,346.770 149.451,346.770 149.296 C 346.770 149.140,346.162 148.685,345.419 148.285 C 344.677 147.886,344.069 147.424,344.069 147.260 C 344.069 147.096,343.710 146.962,343.270 146.962 C 342.831 146.962,342.211 146.702,341.893 146.384 C 341.575 146.066,340.806 145.805,340.185 145.805 C 339.563 145.805,339.055 145.632,339.055 145.419 C 339.055 145.207,338.522 145.034,337.870 145.034 C 337.219 145.034,336.425 144.773,336.107 144.455 C 335.789 144.137,334.977 143.871,334.302 143.864 C 333.200 143.853,333.145 143.800,333.751 143.340 C 334.122 143.058,334.426 142.629,334.426 142.388 C 334.426 142.146,334.860 141.948,335.391 141.948 C 335.921 141.948,336.355 141.774,336.355 141.562 C 336.355 141.350,336.789 141.176,337.319 141.176 C 337.850 141.176,338.284 141.006,338.284 140.798 C 338.284 140.590,338.717 140.311,339.248 140.178 C 339.778 140.045,340.212 139.781,340.212 139.592 C 340.212 139.403,340.572 139.248,341.011 139.248 C 341.865 139.248,342.912 138.413,342.912 137.732 C 342.912 137.505,343.098 137.319,343.326 137.319 C 343.860 137.319,344.841 136.338,344.841 135.804 C 344.841 135.577,345.027 135.391,345.254 135.391 C 345.481 135.391,345.915 135.143,346.218 134.840 C 346.522 134.536,346.770 134.102,346.770 133.875 C 346.770 133.648,347.030 133.462,347.348 133.462 C 347.692 133.462,347.927 133.108,347.927 132.589 C 347.927 132.108,348.360 131.391,348.891 130.992 C 349.421 130.594,349.855 129.945,349.855 129.551 C 349.855 129.156,350.029 128.833,350.241 128.833 C 350.453 128.833,350.632 128.443,350.639 127.965 C 350.646 127.488,350.906 126.760,351.218 126.349 C 351.531 125.934,351.784 124.782,351.784 123.768 C 351.784 122.760,351.958 121.828,352.170 121.697 C 352.382 121.566,352.555 120.533,352.555 119.401 C 352.555 117.894,352.716 117.282,353.156 117.113 C 354.543 116.581,353.705 113.597,352.170 113.597 C 351.063 113.597,350.797 113.754,350.696 114.465 C 350.629 114.942,350.412 115.333,350.214 115.333 C 350.017 115.333,349.855 115.767,349.855 116.297 C 349.855 116.897,349.637 117.261,349.277 117.261 C 348.959 117.261,348.698 117.522,348.698 117.840 C 348.698 118.158,348.525 118.419,348.312 118.419 C 348.100 118.419,347.927 118.599,347.927 118.821 C 347.927 119.650,338.895 128.833,338.079 128.833 C 337.767 128.833,337.512 129.007,337.512 129.219 C 337.512 129.431,337.252 129.605,336.933 129.605 C 336.615 129.605,336.355 129.865,336.355 130.183 C 336.355 130.543,335.991 130.762,335.391 130.762 C 334.860 130.762,334.426 130.935,334.426 131.148 C 334.426 131.360,334.014 131.533,333.509 131.533 C 333.005 131.533,332.376 131.794,332.112 132.112 C 331.805 132.481,330.952 132.690,329.750 132.690 C 328.715 132.690,327.869 132.864,327.869 133.076 C 327.869 133.297,326.708 133.462,325.157 133.462 C 323.102 133.462,322.391 133.602,322.222 134.041 C 322.067 134.446,321.435 134.619,320.113 134.619 C 319.075 134.619,318.226 134.793,318.226 135.005 C 318.226 135.217,317.637 135.391,316.917 135.391 C 316.109 135.391,315.523 135.612,315.386 135.969 C 315.264 136.287,314.811 136.548,314.380 136.548 C 313.950 136.548,313.597 136.721,313.597 136.933 C 313.597 137.177,310.828 137.319,306.063 137.319 C 299.722 137.319,298.494 137.411,298.307 137.898 C 298.124 138.375,297.115 138.476,292.556 138.476 C 289.286 138.476,286.930 138.634,286.789 138.862 C 286.658 139.074,285.259 139.248,283.680 139.248 C 281.386 139.248,280.810 139.364,280.810 139.826 C 280.810 140.286,280.253 140.405,278.110 140.405 C 276.567 140.405,275.410 140.570,275.410 140.791 C 275.410 141.003,274.889 141.176,274.253 141.176 C 272.374 141.176,272.931 140.453,275.024 140.176 C 276.085 140.035,276.953 139.780,276.953 139.608 C 276.953 139.437,277.517 139.242,278.206 139.176 C 279.309 139.070,279.475 138.904,279.581 137.801 L 279.702 136.548 276.614 136.548 C 274.916 136.548,273.419 136.721,273.288 136.933 C 273.157 137.146,272.037 137.319,270.800 137.319 C 269.155 137.319,268.489 137.475,268.327 137.898 C 268.167 138.316,267.512 138.476,265.972 138.476 C 264.798 138.476,263.838 138.650,263.838 138.862 C 263.838 139.074,262.970 139.248,261.909 139.248 C 260.452 139.248,259.981 139.389,259.981 139.826 C 259.981 140.244,259.552 140.405,258.438 140.405 C 257.589 140.405,256.895 140.579,256.895 140.791 C 256.895 141.003,256.362 141.176,255.710 141.176 C 255.059 141.176,254.265 141.437,253.947 141.755 C 253.629 142.073,252.860 142.334,252.239 142.334 C 251.617 142.334,251.109 142.507,251.109 142.719 C 251.109 142.932,250.501 143.105,249.759 143.105 C 249.016 143.105,248.409 143.279,248.409 143.491 C 248.409 143.703,248.056 143.877,247.625 143.877 C 247.194 143.877,246.742 144.137,246.620 144.455 C 246.310 145.262,243.394 145.262,243.394 144.455 C 243.394 144.137,243.221 143.877,243.009 143.877 C 242.797 143.877,242.623 143.529,242.623 143.105 C 242.623 142.677,242.366 142.334,242.044 142.334 C 241.726 142.334,241.466 141.997,241.466 141.585 C 241.466 141.173,241.292 140.729,241.080 140.598 C 240.868 140.467,240.694 140.017,240.694 139.599 C 240.694 139.180,240.434 138.738,240.116 138.616 C 239.739 138.471,239.537 137.871,239.537 136.892 C 239.537 136.066,239.364 135.391,239.151 135.391 C 238.939 135.391,238.766 134.864,238.766 134.221 C 238.766 133.538,238.525 132.960,238.187 132.830 C 237.833 132.694,237.608 132.109,237.608 131.322 C 237.608 130.615,237.435 129.929,237.223 129.797 C 237.011 129.666,236.837 128.885,236.837 128.062 C 236.837 127.238,236.686 126.471,236.502 126.357 C 236.318 126.244,236.046 125.240,235.899 124.126 C 235.751 123.013,235.485 121.924,235.307 121.707 C 234.979 121.305,234.837 120.209,234.181 113.029 C 233.978 110.804,233.625 108.926,233.396 108.850 C 233.118 108.757,232.980 106.300,232.980 101.437 C 232.980 97.004,232.829 94.070,232.594 93.925 C 232.375 93.789,232.208 91.871,232.208 89.489 C 232.208 87.107,232.375 85.188,232.594 85.053 C 232.832 84.906,232.980 81.667,232.980 76.621 C 232.980 70.995,233.118 68.290,233.420 67.988 C 233.818 67.590,234.164 64.198,234.761 54.870 C 234.873 53.120,235.111 51.688,235.290 51.688 C 235.468 51.688,235.724 50.342,235.858 48.698 C 235.992 47.054,236.267 45.407,236.469 45.039 C 236.671 44.671,236.837 43.325,236.837 42.050 C 236.837 40.760,237.008 39.730,237.223 39.730 C 237.440 39.730,237.608 38.637,237.608 37.223 C 237.608 35.251,237.732 34.716,238.187 34.716 C 238.637 34.716,238.766 34.201,238.766 32.401 C 238.766 31.115,238.937 30.087,239.151 30.087 C 239.364 30.087,239.537 29.293,239.537 28.323 C 239.537 27.270,239.770 26.327,240.116 25.982 C 240.473 25.624,240.694 24.677,240.694 23.502 C 240.694 22.456,240.868 21.601,241.080 21.601 C 241.292 21.601,241.466 20.751,241.466 19.713 C 241.466 18.392,241.639 17.759,242.044 17.604 C 242.441 17.452,242.623 16.832,242.623 15.634 C 242.623 14.673,242.797 13.886,243.009 13.886 C 243.221 13.886,243.394 13.018,243.394 11.958 C 243.394 10.500,243.536 10.029,243.973 10.029 C 245.094 10.029,244.765 4.897,243.587 4.013 C 243.057 3.614,242.623 3.069,242.623 2.801 C 242.623 2.534,242.286 2.314,241.874 2.314 C 241.462 2.314,241.018 2.141,240.887 1.929 C 240.756 1.716,239.965 1.543,239.129 1.543 C 238.109 1.543,237.608 1.371,237.608 1.022 C 237.608 0.277,232.709 -0.001,219.709 0.006 C 212.570 0.010,209.069 0.139,209.450 0.386 C 209.769 0.591,211.591 0.768,213.500 0.777 C 215.410 0.787,219.281 1.109,222.104 1.493 C 230.314 2.609,230.062 3.475,221.022 5.209 C 210.285 7.268,197.953 10.023,195.950 10.811 C 194.995 11.187,192.044 12.315,189.392 13.319 C 186.741 14.323,183.616 15.567,182.449 16.085 C 181.283 16.602,179.113 17.567,177.628 18.229 C 163.460 24.543,145.958 35.453,134.812 44.917 C 132.903 46.539,128.809 49.843,125.714 52.260 C 117.644 58.564,106.525 68.681,107.706 68.645 C 107.976 68.636,109.846 67.343,111.861 65.770 C 113.877 64.198,117.572 61.471,120.074 59.710 C 122.576 57.950,126.395 55.198,128.560 53.595 C 144.775 41.592,145.106 41.496,146.340 48.409 C 146.874 51.399,147.816 56.047,149.271 62.874 C 149.475 63.828,150.090 66.258,150.639 68.274 C 152.258 74.219,152.747 76.092,153.103 77.724 C 155.963 90.812,163.584 116.428,169.341 132.305 C 170.225 134.744,171.086 137.175,171.252 137.705 C 172.265 140.928,178.800 157.085,181.471 162.970 C 181.953 164.031,182.740 165.767,183.220 166.827 C 183.701 167.888,184.592 169.845,185.201 171.176 C 186.649 174.345,186.620 174.613,184.511 177.700 C 178.575 186.387,167.735 196.968,158.553 203.037 C 151.532 207.677,150.163 207.878,147.073 204.725 C 141.370 198.906,130.656 179.396,122.447 159.884 C 121.197 156.914,119.613 153.552,118.928 152.413 C 118.242 151.275,117.599 150.146,117.499 149.906 C 117.262 149.340,114.971 151.962,114.957 152.814 C 114.952 153.168,115.544 154.644,116.274 156.093 C 117.786 159.094,120.733 165.438,120.733 165.691 C 120.733 165.784,121.340 167.175,122.083 168.783 C 122.825 170.390,123.433 171.758,123.433 171.823 C 123.433 171.887,124.474 173.805,125.747 176.085 C 127.020 178.365,128.062 180.299,128.062 180.383 C 128.062 180.467,128.496 181.223,129.026 182.064 C 130.242 183.990,130.417 185.753,129.270 184.522 C 128.874 184.096,127.978 182.718,127.278 181.460 C 126.579 180.201,125.717 178.650,125.362 178.014 C 124.637 176.714,122.637 173.110,121.189 170.492 C 120.660 169.537,118.631 166.239,116.678 163.163 C 114.726 160.087,112.584 156.615,111.918 155.448 C 111.184 154.161,110.063 152.894,109.067 152.226 C 105.293 149.696,101.061 141.765,101.061 137.225 C 101.061 136.826,99.341 132.996,97.240 128.713 C 91.285 116.577,90.898 114.725,95.924 122.418 C 102.283 132.152,101.873 131.616,102.751 131.337 C 103.200 131.194,104.559 130.986,105.770 130.874 L 107.972 130.671 103.306 121.556 C 100.739 116.542,98.168 111.572,97.592 110.511 C 97.016 109.450,95.803 107.194,94.897 105.497 C 91.013 98.224,89.915 96.783,87.367 95.609 C 85.152 94.589,85.861 91.170,88.996 87.752 C 90.302 86.328,91.504 84.432,91.257 84.185 C 91.122 84.051,89.324 85.751,87.261 87.963 C 73.630 102.582,63.989 109.808,51.054 115.098 C 37.948 120.458,23.953 121.844,13.693 118.796 C 9.980 117.693,6.927 112.557,6.957 107.464 C 6.978 103.822,7.668 101.347,10.177 95.922 C 10.944 94.262,11.572 92.801,11.572 92.675 C 11.572 92.549,13.015 90.435,14.778 87.978 C 16.542 85.521,18.614 82.382,19.383 81.003 C 20.152 79.624,21.183 77.989,21.673 77.369 C 26.071 71.813,33.061 64.880,38.548 60.631 C 40.365 59.225,41.938 57.978,42.044 57.860 C 44.016 55.678,62.393 43.997,71.167 39.349 C 73.288 38.225,75.198 37.176,75.410 37.018 C 77.579 35.402,95.792 26.768,105.111 22.937 C 120.362 16.669,149.099 7.832,160.270 5.976 C 162.179 5.659,164.696 5.225,165.863 5.013 C 168.627 4.508,171.383 4.033,175.892 3.281 C 177.907 2.946,180.424 2.502,181.485 2.296 C 184.684 1.675,190.095 1.078,194.859 0.821 C 206.127 0.214,195.728 -0.172,180.461 0.287 M187.464 24.977 C 187.464 25.348,187.973 27.436,188.596 29.615 C 189.249 31.897,189.912 35.495,190.160 38.100 C 191.239 49.408,193.598 65.506,195.966 77.724 C 198.170 89.099,199.994 96.971,203.332 109.510 C 204.327 113.249,204.443 114.147,204.107 115.489 C 203.281 118.783,203.295 119.877,204.243 125.530 C 205.275 131.682,206.061 134.894,208.721 143.813 C 210.520 149.847,210.510 150.072,208.368 151.326 C 205.973 152.729,204.532 150.315,200.062 137.416 C 199.566 135.984,198.937 134.204,198.664 133.462 C 198.391 132.719,198.083 131.548,197.981 130.858 C 197.705 129.006,197.107 129.336,197.107 131.340 C 197.107 133.256,196.543 133.681,196.212 132.015 C 196.097 131.432,195.741 130.087,195.423 129.026 C 194.896 127.271,194.120 124.536,193.208 121.215 C 193.019 120.526,192.709 119.397,192.520 118.708 C 192.330 118.018,191.881 116.413,191.522 115.140 C 191.163 113.867,190.730 112.305,190.561 111.668 C 190.393 111.032,189.900 109.209,189.468 107.618 C 187.824 101.575,186.757 97.291,186.152 94.311 C 185.807 92.613,185.334 90.270,185.099 89.103 C 184.865 87.936,184.446 85.940,184.170 84.667 C 183.893 83.394,183.570 81.832,183.452 81.196 C 183.333 80.559,182.971 78.824,182.646 77.338 C 182.322 75.853,181.892 73.684,181.691 72.517 C 179.826 61.679,179.230 57.788,178.414 51.109 C 176.711 37.182,175.879 30.679,175.686 29.808 C 175.548 29.180,175.644 29.007,176.045 29.160 C 176.927 29.499,178.236 34.237,178.964 39.730 C 179.472 43.567,180.989 53.758,182.235 61.716 C 182.551 63.732,183.257 68.245,183.804 71.745 C 184.351 75.246,184.952 78.891,185.141 79.846 C 185.329 80.800,185.767 83.230,186.114 85.246 C 186.461 87.261,187.155 90.646,187.656 92.768 C 188.156 94.889,189.030 98.708,189.598 101.254 C 190.166 103.799,191.157 107.878,191.801 110.318 C 192.446 112.758,193.102 115.362,193.259 116.104 C 193.416 116.847,193.844 118.496,194.210 119.769 C 194.575 121.041,195.003 122.829,195.161 123.741 C 195.319 124.653,195.647 125.599,195.892 125.843 C 196.136 126.088,196.336 126.687,196.336 127.175 C 196.336 127.662,196.509 128.062,196.721 128.062 C 197.286 128.062,197.194 126.791,196.318 122.469 C 195.889 120.347,195.381 117.570,195.191 116.297 C 195.001 115.024,194.390 110.945,193.833 107.232 C 192.831 100.546,192.044 94.872,191.291 88.910 C 191.077 87.213,190.301 82.093,189.566 77.531 C 188.832 72.970,188.050 68.110,187.828 66.731 C 187.607 65.352,187.261 63.484,187.059 62.579 C 186.579 60.423,186.589 57.473,187.078 57.473 C 187.290 57.473,187.464 58.141,187.464 58.957 C 187.464 59.888,187.752 60.773,188.235 61.331 C 189.152 62.388,189.145 62.558,188.394 57.473 C 188.065 55.246,187.643 52.382,187.455 51.109 C 187.267 49.836,186.837 47.059,186.499 44.937 C 185.290 37.350,185.176 35.631,185.533 30.317 C 185.727 27.423,185.991 24.886,186.119 24.678 C 186.510 24.046,187.464 24.257,187.464 24.977 M165.723 29.996 C 165.965 30.152,166.356 31.408,166.592 32.787 C 167.108 35.793,167.482 37.773,169.324 47.252 C 169.611 48.729,170.643 53.698,172.649 63.259 C 173.894 69.191,174.214 70.685,174.921 73.867 C 175.251 75.352,175.685 77.348,175.885 78.303 C 176.789 82.609,180.334 98.066,181.725 103.761 C 183.413 110.676,184.432 114.444,187.094 123.626 C 191.213 137.829,195.521 150.654,197.931 155.886 C 199.420 159.120,199.468 158.975,195.564 163.053 C 193.761 164.937,191.619 167.217,190.804 168.120 C 189.990 169.023,189.122 169.698,188.876 169.620 C 188.103 169.375,185.642 164.087,180.934 152.555 C 179.202 148.312,177.633 144.494,177.447 144.069 C 177.261 143.645,176.805 142.430,176.434 141.369 C 176.063 140.309,175.645 139.267,175.506 139.055 C 175.367 138.843,174.950 137.801,174.578 136.741 C 174.207 135.680,173.757 134.465,173.579 134.041 C 173.400 133.616,172.792 131.967,172.228 130.376 C 171.663 128.785,171.046 127.136,170.855 126.712 C 170.665 126.287,170.236 125.072,169.903 124.012 C 169.569 122.951,169.140 121.736,168.949 121.311 C 168.543 120.407,164.779 109.026,163.592 105.111 C 160.456 94.771,156.586 79.319,154.898 70.395 C 154.336 67.425,153.708 64.214,153.501 63.259 C 153.294 62.305,153.150 58.920,153.180 55.738 C 153.210 52.555,153.052 49.171,152.828 48.216 C 152.604 47.261,152.300 44.727,152.153 42.584 L 151.886 38.687 152.992 37.454 C 153.861 36.486,164.263 29.854,165.092 29.739 C 165.198 29.725,165.482 29.840,165.723 29.996 M43.404 45.114 C 43.101 45.605,44.028 47.059,44.644 47.059 C 44.927 47.059,45.130 46.575,45.130 45.902 C 45.130 44.740,43.964 44.208,43.404 45.114 M287.263 80.465 C 286.843 80.885,287.350 81.389,288.194 81.389 C 288.647 81.389,288.907 81.186,288.814 80.906 C 288.631 80.356,287.651 80.077,287.263 80.465 M347.955 125.803 C 347.369 128.621,345.543 131.674,342.865 134.311 C 340.673 136.469,339.362 137.245,335.320 138.780 C 329.102 141.142,322.492 147.829,321.560 152.702 C 321.021 155.521,317.957 159.892,315.379 161.520 C 312.703 163.209,306.014 164.313,305.314 163.180 C 304.850 162.429,304.037 163.257,303.803 164.720 C 303.660 165.619,303.057 166.804,302.311 167.653 C 301.497 168.581,301.229 169.133,301.543 169.238 C 303.899 170.024,300.099 171.431,297.591 170.702 C 292.233 169.144,292.832 162.105,298.920 155.084 C 299.300 154.646,299.837 153.464,300.112 152.457 C 301.015 149.158,302.411 148.085,302.411 150.691 C 302.411 152.079,302.988 152.425,303.358 151.259 C 303.643 150.360,309.856 144.200,311.831 142.858 C 314.178 141.263,317.578 139.865,324.397 137.691 C 327.898 136.574,331.022 135.531,331.340 135.372 C 331.659 135.213,333.365 134.371,335.132 133.500 C 338.653 131.767,342.808 128.563,345.805 125.271 C 348.046 122.810,348.551 122.935,347.955 125.803 M271.360 141.562 C 271.229 141.774,270.871 141.948,270.565 141.948 C 270.260 141.948,270.010 141.774,270.010 141.562 C 270.010 141.350,270.367 141.176,270.804 141.176 C 271.241 141.176,271.491 141.350,271.360 141.562 M284.667 143.105 C 284.349 143.311,283.696 143.482,283.216 143.485 C 282.735 143.488,282.041 143.654,281.673 143.854 C 281.304 144.054,279.961 144.509,278.689 144.866 C 271.696 146.828,261.810 150.294,260.182 151.355 C 259.753 151.634,258.187 152.521,256.702 153.326 C 243.749 160.344,236.024 165.543,225.265 174.482 C 205.470 190.928,186.925 215.279,185.948 226.106 C 185.770 228.083,185.357 230.222,185.031 230.858 C 183.833 233.195,182.125 237.157,180.124 242.237 C 177.933 247.801,177.672 248.305,175.422 251.336 C 174.212 252.966,170.095 261.280,166.748 268.852 C 161.768 280.122,157.552 288.381,153.197 295.403 C 152.102 297.170,151.205 298.715,151.205 298.837 C 151.205 299.202,146.182 306.659,144.120 309.354 C 135.661 320.411,130.150 325.735,121.169 331.532 C 112.016 337.438,90.507 344.560,86.079 343.150 C 81.933 341.830,80.125 341.630,78.218 342.277 C 75.543 343.185,71.893 343.440,68.685 342.942 C 55.972 340.970,33.379 325.377,30.532 316.610 C 24.104 296.818,35.197 281.870,65.284 269.778 C 73.195 266.599,89.625 265.056,97.632 266.740 C 101.226 267.496,101.445 267.703,101.452 270.346 C 101.471 277.596,105.504 284.767,113.897 292.471 C 117.499 295.779,122.774 299.711,123.608 299.711 C 123.841 299.711,125.242 300.679,126.722 301.862 C 129.704 304.246,131.149 304.443,133.481 302.783 C 134.813 301.834,135.005 301.836,135.005 302.797 C 135.005 303.938,135.973 303.343,140.175 299.614 C 141.417 298.513,141.630 298.837,140.772 300.520 C 139.556 302.902,140.119 302.772,142.802 300.050 C 145.997 296.808,149.439 291.546,154.387 282.342 C 160.429 271.103,161.425 268.800,161.986 264.766 C 162.638 260.081,162.674 260.048,155.815 270.395 C 153.072 274.532,149.915 278.948,148.799 280.208 C 147.683 281.467,146.195 283.250,145.492 284.169 C 143.982 286.145,143.724 286.070,143.056 283.465 C 142.673 281.969,142.222 281.246,141.190 280.476 C 137.821 277.961,136.250 274.345,135.385 267.117 C 135.006 263.941,133.796 260.242,131.349 254.773 C 130.052 251.875,124.048 235.651,123.033 232.299 C 122.319 229.945,122.003 229.806,116.569 229.456 C 111.293 229.117,109.089 228.758,107.704 228.013 C 106.305 227.261,107.079 226.808,109.762 226.808 C 115.745 226.808,126.713 224.099,135.621 220.421 C 147.457 215.534,154.912 210.261,175.945 191.900 C 183.116 185.639,187.796 181.656,191.013 179.072 C 192.137 178.170,193.578 176.954,194.214 176.370 C 197.124 173.703,206.692 167.020,207.602 167.020 C 208.375 167.020,207.734 168.022,205.777 169.873 C 203.460 172.063,203.382 172.543,205.431 171.977 C 207.844 171.311,208.082 172.205,206.489 175.963 C 205.408 178.513,203.184 181.902,202.426 182.155 C 202.182 182.236,201.947 182.827,201.902 183.467 C 201.847 184.273,200.744 186.022,198.324 189.143 C 188.355 202.003,180.801 214.719,175.720 227.194 C 174.726 229.634,173.605 232.324,173.228 233.173 C 172.296 235.271,171.488 238.347,171.789 238.648 C 171.924 238.784,172.035 238.518,172.035 238.059 C 172.035 237.599,172.188 237.223,172.375 237.223 C 172.563 237.223,173.886 234.923,175.315 232.112 C 177.676 227.467,178.783 225.389,181.019 221.408 C 181.436 220.665,182.479 218.756,183.338 217.165 C 184.196 215.574,185.302 213.624,185.795 212.833 C 186.289 212.042,186.692 211.313,186.692 211.214 C 186.692 210.979,190.902 204.280,193.376 200.579 C 208.749 177.576,229.293 160.808,254.002 151.096 C 265.033 146.759,272.571 144.491,279.846 143.320 C 283.864 142.673,285.444 142.603,284.667 143.105 M373.291 156.154 C 373.612 156.358,372.964 156.843,371.368 157.594 C 359.173 163.333,344.507 177.410,339.592 188.095 C 338.824 189.763,337.627 192.343,336.931 193.828 C 336.236 195.313,335.319 197.310,334.895 198.264 C 333.767 200.801,331.130 208.209,330.639 210.222 C 330.406 211.176,329.753 213.867,329.188 216.201 C 327.191 224.449,322.223 231.481,315.240 235.949 C 304.436 242.860,295.023 242.632,291.144 235.365 L 290.485 234.130 287.094 234.359 C 272.045 235.375,256.895 243.768,256.895 251.087 C 256.895 252.360,256.659 252.848,255.556 253.851 C 250.298 258.636,248.652 265.126,251.312 270.583 C 253.037 274.122,255.567 275.375,261.041 275.400 C 268.622 275.436,251.801 293.439,239.191 298.786 C 238.639 299.021,237.406 299.567,236.451 300.000 C 234.347 300.955,229.524 302.411,228.463 302.411 C 228.040 302.411,227.161 302.888,226.510 303.472 C 225.858 304.055,224.331 305.227,223.115 306.075 C 216.532 310.671,212.147 318.296,214.741 320.636 C 216.101 321.862,221.933 322.810,225.458 322.377 C 226.731 322.221,229.161 321.927,230.858 321.724 C 234.609 321.276,235.762 320.940,238.741 319.426 C 241.887 317.827,242.006 318.407,239.338 322.335 C 233.370 331.120,223.945 337.600,222.675 333.791 L 222.335 332.771 221.003 333.917 C 211.094 342.454,197.629 342.863,196.165 334.672 L 195.898 333.181 192.163 333.412 C 180.951 334.105,176.652 334.787,173.568 336.360 C 171.344 337.494,167.032 341.862,166.048 343.977 C 165.008 346.214,164.083 346.042,164.249 343.642 C 164.338 342.362,164.140 341.494,163.521 340.445 C 162.570 338.833,162.326 332.612,163.115 330.102 C 165.531 322.419,166.991 319.343,169.991 315.624 C 172.830 312.104,175.023 306.060,174.566 303.013 C 173.987 299.155,171.254 297.904,168.614 300.289 C 166.703 302.015,166.634 301.998,166.639 299.807 C 166.648 295.816,169.689 289.426,173.752 284.860 C 176.003 282.331,178.465 275.551,178.996 270.419 C 180.164 259.130,185.987 247.114,194.692 238.031 C 196.127 236.533,196.409 237.150,195.242 239.236 C 194.853 239.932,194.063 241.347,193.488 242.380 C 188.327 251.648,190.343 263.771,197.835 268.522 C 202.623 271.558,211.416 267.275,215.371 259.981 C 218.036 255.065,218.969 251.689,220.118 242.816 C 220.886 236.877,221.163 234.994,221.797 231.386 C 222.283 228.620,222.264 228.293,221.475 225.959 C 218.039 215.786,228.316 199.782,243.973 190.922 C 262.739 180.304,277.689 166.000,277.730 158.623 C 277.735 157.801,277.818 157.697,278.110 158.149 C 278.655 158.992,278.578 161.065,277.926 163.111 C 277.613 164.094,276.899 166.365,276.340 168.156 C 274.193 175.039,272.431 177.399,267.059 180.589 C 253.274 188.775,246.167 214.243,254.593 225.265 C 255.161 226.008,255.724 226.876,255.844 227.194 C 255.989 227.579,256.073 227.482,256.093 226.905 C 256.110 226.427,255.950 226.037,255.738 226.037 C 255.526 226.037,255.352 225.637,255.352 225.149 C 255.352 224.662,255.204 224.097,255.024 223.896 C 252.767 221.378,252.577 209.559,254.715 204.725 C 257.155 199.206,273.517 189.425,288.975 184.243 C 299.872 180.590,315.170 176.933,315.734 177.846 C 316.149 178.517,314.561 188.749,312.956 195.757 C 310.105 208.197,308.396 212.355,304.741 215.738 C 296.863 223.032,287.080 221.620,287.909 213.308 C 288.106 211.327,288.527 209.954,290.272 205.593 C 292.071 201.099,296.379 196.533,301.184 194.028 C 304.315 192.396,303.885 192.231,298.079 192.839 C 282.939 194.425,270.627 207.778,269.630 223.696 C 269.305 228.886,268.941 230.003,267.235 231.040 C 264.500 232.703,261.094 232.400,258.837 230.292 C 257.455 229.001,257.216 229.756,258.529 231.266 C 261.347 234.506,267.248 234.118,270.794 230.459 L 272.090 229.122 271.434 227.290 C 270.731 225.330,270.566 221.625,271.117 220.172 C 271.302 219.685,271.772 218.245,272.163 216.972 C 273.781 211.699,279.221 204.101,282.610 202.379 C 283.578 201.887,284.933 200.697,285.745 199.625 C 287.253 197.636,292.100 194.729,292.763 195.418 C 292.944 195.607,292.058 196.868,290.762 198.264 C 289.482 199.643,288.094 201.553,287.676 202.507 C 287.259 203.462,286.604 204.937,286.222 205.786 C 283.298 212.268,283.613 219.058,286.942 221.298 C 289.908 223.293,300.121 222.223,302.327 219.686 C 302.779 219.166,303.894 218.366,304.805 217.907 C 312.387 214.090,334.636 190.338,335.809 184.809 C 337.234 178.086,343.226 169.630,350.241 164.442 C 356.624 159.722,370.852 154.605,373.291 156.154 M82.932 209.717 C 82.932 210.476,82.001 210.140,81.843 209.323 C 81.756 208.876,81.902 208.752,82.325 208.914 C 82.659 209.042,82.932 209.403,82.932 209.717 M398.746 216.040 C 397.854 217.018,397.891 217.165,399.036 217.165 C 399.807 217.165,400.000 216.972,400.000 216.201 C 400.000 215.067,399.673 215.025,398.746 216.040 M214.206 226.519 C 215.117 227.420,216.314 228.552,216.866 229.034 C 219.187 231.061,219.769 237.149,218.280 243.807 C 217.832 245.808,217.326 248.312,217.155 249.373 C 215.863 257.382,208.996 265.028,203.135 264.983 C 200.975 264.966,200.125 264.275,200.424 262.777 L 200.658 261.610 199.059 262.036 C 194.972 263.127,192.901 257.156,194.796 249.748 C 195.221 248.083,195.469 246.402,195.346 246.013 C 194.762 244.176,200.154 236.678,207.005 229.797 C 212.637 224.142,212.067 224.402,214.206 226.519 M288.480 236.695 C 288.973 237.041,289.629 237.926,289.937 238.663 C 290.606 240.265,293.525 243.470,295.330 244.586 C 296.042 245.026,296.625 245.585,296.625 245.828 C 296.625 246.304,294.970 250.906,294.080 252.903 C 293.783 253.572,293.539 254.218,293.539 254.340 C 293.539 254.462,293.044 255.650,292.439 256.982 C 291.834 258.313,290.683 260.878,289.882 262.681 C 289.081 264.484,288.078 266.741,287.654 267.695 C 285.875 271.698,282.988 277.599,282.371 278.496 C 282.005 279.026,280.921 280.935,279.960 282.739 C 279.000 284.542,277.865 286.625,277.439 287.367 C 276.003 289.865,273.500 294.254,272.776 295.541 C 266.988 305.836,257.757 320.063,251.332 328.593 C 249.194 331.431,247.097 334.219,246.673 334.789 C 245.714 336.076,243.150 339.236,241.807 340.785 C 241.253 341.424,239.181 343.857,237.203 346.191 C 226.165 359.215,218.974 365.101,210.415 368.119 C 208.930 368.643,206.239 369.622,204.436 370.295 C 200.664 371.702,198.341 371.705,194.118 370.307 C 191.852 369.557,191.649 369.548,190.733 370.148 C 189.535 370.933,187.300 370.702,184.547 369.508 C 176.495 366.018,163.198 363.005,155.256 362.871 C 150.405 362.789,143.491 365.915,143.491 368.190 C 143.491 368.856,141.480 372.228,141.083 372.228 C 140.211 372.228,142.141 366.649,143.339 365.707 C 145.331 364.140,146.379 351.726,144.888 347.361 C 144.596 346.505,144.156 344.958,143.912 343.923 C 143.341 341.507,141.573 339.062,138.985 337.107 C 136.629 335.329,136.666 335.435,137.784 333.655 C 140.152 329.881,143.796 323.191,145.453 319.576 C 146.133 318.091,147.682 314.793,148.894 312.247 C 150.107 309.701,151.402 306.924,151.772 306.075 C 152.651 304.058,155.885 297.576,156.871 295.853 C 157.296 295.111,158.569 292.854,159.700 290.839 C 164.878 281.612,170.941 272.627,172.145 272.395 C 173.412 272.151,173.067 277.011,171.706 278.579 C 165.895 285.271,161.030 299.454,162.418 305.656 C 163.067 308.559,163.127 308.563,165.701 305.883 C 168.248 303.231,169.249 302.980,170.466 304.688 C 172.051 306.914,171.226 311.629,168.773 314.368 C 165.658 317.847,162.551 325.289,161.236 332.422 C 160.455 336.660,162.299 349.266,163.979 351.170 C 164.387 351.633,165.477 350.716,165.477 349.910 C 165.477 344.675,179.297 333.971,181.485 337.512 C 181.864 338.125,182.803 337.969,185.001 336.929 C 188.954 335.059,193.558 335.269,194.150 337.347 C 195.598 342.434,196.372 343.021,201.929 343.245 C 206.783 343.440,209.966 342.780,213.932 340.757 C 217.106 339.137,217.427 339.055,220.591 339.050 C 229.851 339.035,235.650 334.711,242.309 322.854 C 247.225 314.103,250.430 309.931,255.075 306.236 C 256.725 304.923,258.003 303.776,257.913 303.687 C 257.421 303.194,250.329 307.252,247.133 309.855 C 235.514 319.319,218.832 323.187,218.396 316.518 C 218.061 311.382,225.776 304.577,232.726 303.880 C 235.223 303.629,237.376 303.093,240.288 301.995 C 242.527 301.151,245.053 300.354,245.902 300.224 C 251.021 299.438,257.382 293.749,261.897 285.918 C 263.456 283.215,265.237 280.348,265.854 279.547 C 268.575 276.014,273.663 264.203,273.410 262.004 C 273.292 260.977,273.256 260.998,272.229 262.713 C 267.368 270.821,257.751 273.729,253.636 268.334 C 251.293 265.262,253.506 259.343,258.042 256.552 C 259.559 255.618,259.930 255.163,260.156 253.957 C 261.822 245.080,282.477 232.490,288.480 236.695 M128.833 317.038 C 117.534 324.185,106.650 329.457,95.468 333.197 C 93.558 333.836,90.526 334.981,88.729 335.742 C 86.932 336.504,85.240 337.126,84.968 337.126 C 84.697 337.126,84.474 337.300,84.474 337.512 C 84.474 338.142,86.225 337.958,89.992 336.931 C 91.943 336.400,94.147 335.800,94.889 335.599 C 109.916 331.525,122.655 325.197,129.998 318.161 C 133.750 314.566,133.350 314.180,128.833 317.038 M9.065 341.627 C 6.830 342.114,5.946 343.303,7.020 344.378 C 8.293 345.650,14.658 344.430,14.658 342.914 C 14.658 341.647,11.893 341.011,9.065 341.627 M118.583 344.331 C 126.801 345.912,133.916 352.191,134.533 358.408 C 134.706 360.154,134.677 360.214,133.605 360.336 C 132.630 360.448,132.483 360.637,132.377 361.916 C 131.857 368.214,115.493 360.133,108.796 350.271 C 106.402 346.746,103.614 344.833,102.498 345.949 C 101.657 346.790,99.835 346.488,99.973 345.530 C 100.258 343.558,110.973 342.868,118.583 344.331 M251.283 346.904 C 246.358 349.673,244.017 354.484,247.595 354.484 C 248.436 354.484,249.952 352.499,249.952 351.396 C 249.952 350.052,252.503 348.931,253.562 349.810 C 254.002 350.175,254.349 350.027,255.310 349.067 C 256.807 347.569,256.804 347.541,255.147 347.541 C 254.292 347.541,253.702 347.326,253.563 346.962 C 253.306 346.292,252.412 346.269,251.283 346.904 M29.372 353.074 C 27.964 354.572,28.606 355.313,31.192 355.177 C 33.654 355.047,34.177 354.332,32.811 352.965 C 31.761 351.915,30.420 351.958,29.372 353.074 " stroke="none" fill="#050404" fill-rule="evenodd"></path><path id="path2" d="M345.805 125.271 C 342.808 128.563,338.653 131.767,335.132 133.500 C 333.365 134.371,331.659 135.213,331.340 135.372 C 331.022 135.531,327.898 136.574,324.397 137.691 C 317.578 139.865,314.178 141.263,311.831 142.858 C 309.856 144.200,303.643 150.360,303.358 151.259 C 302.988 152.425,302.411 152.079,302.411 150.691 C 302.411 148.085,301.015 149.158,300.112 152.457 C 299.837 153.464,299.300 154.646,298.920 155.084 C 292.832 162.105,292.233 169.144,297.591 170.702 C 300.099 171.431,303.899 170.024,301.543 169.238 C 301.229 169.133,301.497 168.581,302.311 167.653 C 303.057 166.804,303.660 165.619,303.803 164.720 C 304.037 163.257,304.850 162.429,305.314 163.180 C 306.014 164.313,312.703 163.209,315.379 161.520 C 317.957 159.892,321.021 155.521,321.560 152.702 C 322.492 147.829,329.102 141.142,335.320 138.780 C 340.701 136.737,343.937 134.149,346.315 129.987 C 347.592 127.753,348.609 123.937,348.059 123.445 C 347.880 123.285,346.866 124.107,345.805 125.271 M369.720 156.084 C 352.913 159.578,338.586 171.713,335.809 184.809 C 334.636 190.338,312.387 214.090,304.805 217.907 C 303.894 218.366,302.779 219.166,302.327 219.686 C 300.121 222.223,289.908 223.293,286.942 221.298 C 283.613 219.058,283.298 212.268,286.222 205.786 C 286.604 204.937,287.259 203.462,287.676 202.507 C 288.094 201.553,289.482 199.643,290.762 198.264 C 292.042 196.885,292.948 195.611,292.777 195.432 C 292.124 194.752,287.233 197.671,285.745 199.630 C 284.936 200.694,283.574 201.889,282.610 202.379 C 279.769 203.822,273.804 211.603,272.604 215.429 C 270.612 221.782,270.363 224.303,271.434 227.290 L 272.090 229.122 270.794 230.459 C 267.375 233.987,261.403 234.500,258.688 231.501 C 255.543 228.025,252.002 221.096,251.440 217.319 C 249.365 203.368,256.347 186.950,267.059 180.589 C 272.431 177.399,274.193 175.039,276.340 168.156 C 276.899 166.365,277.613 164.094,277.926 163.111 C 278.578 161.065,278.655 158.992,278.110 158.149 C 277.818 157.697,277.735 157.801,277.730 158.623 C 277.689 166.000,262.739 180.304,243.973 190.922 C 228.316 199.782,218.039 215.786,221.475 225.959 C 222.264 228.293,222.283 228.620,221.797 231.386 C 221.163 234.994,220.886 236.877,220.118 242.816 C 218.969 251.689,218.036 255.065,215.371 259.981 C 211.416 267.275,202.623 271.558,197.835 268.522 C 190.343 263.771,188.327 251.648,193.488 242.380 C 194.063 241.347,194.853 239.932,195.242 239.236 C 196.409 237.150,196.127 236.533,194.692 238.031 C 185.987 247.114,180.164 259.130,178.996 270.419 C 178.465 275.551,176.003 282.331,173.752 284.860 C 169.689 289.426,166.648 295.816,166.639 299.807 C 166.634 301.998,166.703 302.015,168.614 300.289 C 171.254 297.904,173.987 299.155,174.566 303.013 C 175.020 306.044,172.850 312.051,170.010 315.624 C 164.053 323.120,160.755 335.757,163.529 340.459 C 164.140 341.494,164.337 342.367,164.249 343.642 C 164.083 346.042,165.008 346.214,166.048 343.977 C 167.032 341.862,171.344 337.494,173.568 336.360 C 176.652 334.787,180.951 334.105,192.163 333.412 L 195.898 333.181 196.165 334.672 C 197.629 342.863,211.094 342.454,221.003 333.917 L 222.335 332.771 222.675 333.791 C 223.945 337.600,233.370 331.120,239.338 322.335 C 242.006 318.407,241.887 317.827,238.741 319.426 C 235.762 320.940,234.609 321.276,230.858 321.724 C 229.161 321.927,226.731 322.221,225.458 322.377 C 221.933 322.810,216.101 321.862,214.741 320.636 C 212.147 318.296,216.532 310.671,223.115 306.075 C 224.331 305.227,225.858 304.055,226.510 303.472 C 227.161 302.888,228.040 302.411,228.463 302.411 C 229.524 302.411,234.347 300.955,236.451 300.000 C 237.406 299.567,238.639 299.021,239.191 298.786 C 245.122 296.271,255.344 288.520,258.940 283.810 C 263.496 277.843,264.103 275.415,261.041 275.400 C 255.567 275.375,253.037 274.122,251.312 270.583 C 248.652 265.126,250.298 258.636,255.556 253.851 C 256.659 252.848,256.895 252.360,256.895 251.087 C 256.895 243.768,272.045 235.375,287.094 234.359 L 290.485 234.130 291.144 235.365 C 298.516 249.177,324.354 236.161,329.188 216.201 C 329.753 213.867,330.406 211.176,330.639 210.222 C 331.130 208.209,333.767 200.801,334.895 198.264 C 335.319 197.310,336.236 195.313,336.931 193.828 C 337.627 192.343,338.824 189.763,339.592 188.095 C 344.507 177.410,359.173 163.333,371.368 157.594 C 374.335 156.198,373.380 155.323,369.720 156.084 M107.040 343.714 C 101.527 344.069,100.132 344.428,99.973 345.530 C 99.835 346.488,101.657 346.790,102.498 345.949 C 103.614 344.833,106.402 346.746,108.796 350.271 C 115.493 360.133,131.857 368.214,132.377 361.916 C 132.483 360.637,132.630 360.448,133.605 360.336 C 137.275 359.917,132.711 351.570,126.724 347.756 C 121.003 344.111,116.195 343.123,107.040 343.714 " stroke="none" fill="#f9f9f9" fill-rule="evenodd"></path></g></svg>